Atma-Bold.ufo
<glyph name="zero" format="1">
  <advance width="639"/>
  <unicode hex="0030"/>
  <outline>
    <contour>
      <point x="363" y="673" type="curve" smooth="yes"/>
      <point x="162" y="673"/>
      <point x="30" y="510"/>
      <point x="30" y="293" type="curve" smooth="yes"/>
      <point x="30" y="134"/>
      <point x="96" y="-20"/>
      <point x="274" y="-20" type="curve" smooth="yes"/>
      <point x="532" y="-20"/>
      <point x="609" y="250"/>
      <point x="609" y="402" type="curve" smooth="yes"/>
      <point x="609" y="579"/>
      <point x="517" y="673"/>
    </contour>
    <contour>
      <point x="328" y="543" type="curve" smooth="yes"/>
      <point x="372" y="543"/>
      <point x="400" y="489"/>
      <point x="400" y="347" type="curve" smooth="yes"/>
      <point x="400" y="250"/>
      <point x="382" y="110"/>
      <point x="317" y="110" type="curve" smooth="yes"/>
      <point x="258" y="110"/>
      <point x="235" y="229"/>
      <point x="235" y="321" type="curve" smooth="yes"/>
      <point x="235" y="454"/>
      <point x="271" y="543"/>
    </contour>
  </outline>
</glyph>
<glyph name="M" format="1">
  <advance width="837"/>
  <unicode hex="004D"/>
  <outline>
    <contour>
      <point x="105" y="-4" type="curve"/>
      <point x="167" y="-4"/>
      <point x="253" y="5"/>
      <point x="289" y="16" type="curve"/>
      <point x="259" y="121"/>
      <point x="239" y="291"/>
      <point x="239" y="455" type="curve" smooth="yes"/>
      <point x="239" y="501"/>
      <point x="242" y="591"/>
      <point x="258" y="684" type="curve"/>
      <point x="60" y="689" type="line"/>
      <point x="60" y="484"/>
      <point x="80" y="172"/>
    </contour>
    <contour>
      <point x="763" y="710" type="curve"/>
      <point x="596" y="710" type="line"/>
      <point x="596" y="523"/>
      <point x="579" y="137"/>
      <point x="569" y="-61" type="curve"/>
      <point x="666" y="-61"/>
      <point x="720" y="-46"/>
      <point x="777" y="-24" type="curve"/>
      <point x="777" y="169"/>
      <point x="774" y="484"/>
    </contour>
    <contour>
      <point x="358" y="198" type="curve"/>
      <point x="395" y="198"/>
      <point x="427" y="201"/>
      <point x="463" y="212" type="curve"/>
      <point x="550" y="323"/>
      <point x="659" y="512"/>
      <point x="763" y="710" type="curve"/>
      <point x="712" y="734"/>
      <point x="677" y="744"/>
      <point x="611" y="756" type="curve"/>
      <point x="557" y="605"/>
      <point x="505" y="501"/>
      <point x="429" y="387" type="curve"/>
      <point x="466" y="384" type="line"/>
      <point x="410" y="533"/>
      <point x="330" y="664"/>
      <point x="251" y="767" type="curve"/>
      <point x="187" y="758"/>
      <point x="114" y="726"/>
      <point x="60" y="689" type="curve"/>
      <point x="191" y="547"/>
      <point x="277" y="378"/>
    </contour>
  </outline>
</glyph>
<glyph name="grave" format="1">
  <advance width="260"/>
  <unicode hex="0060"/>
  <outline>
    <contour>
      <point x="224" y="586" type="curve"/>
      <point x="207" y="638"/>
      <point x="196" y="696"/>
      <point x="193" y="748" type="curve"/>
      <point x="155" y="754"/>
      <point x="89" y="755"/>
      <point x="38" y="734" type="curve"/>
      <point x="46" y="675"/>
      <point x="77" y="622"/>
      <point x="111" y="572" type="curve"/>
      <point x="152" y="572"/>
      <point x="188" y="576"/>
    </contour>
    <contour>
      <point x="158" y="560" type="move" name="_top"/>
    </contour>
  </outline>
</glyph>
<glyph name="h" format="1">
  <advance width="598"/>
  <unicode hex="0068"/>
  <outline>
    <contour>
      <point x="548" y="343" type="curve" smooth="yes"/>
      <point x="548" y="492"/>
      <point x="487" y="543"/>
      <point x="392" y="543" type="curve" smooth="yes"/>
      <point x="292" y="543"/>
      <point x="234" y="465"/>
      <point x="199" y="375" type="curve"/>
      <point x="220" y="291" type="line"/>
      <point x="262" y="378"/>
      <point x="296" y="412"/>
      <point x="319" y="412" type="curve" smooth="yes"/>
      <point x="344" y="412"/>
      <point x="350" y="394"/>
      <point x="350" y="342" type="curve" smooth="yes"/>
      <point x="350" y="227"/>
      <point x="322" y="102"/>
      <point x="294" y="3" type="curve"/>
      <point x="347" y="-17"/>
      <point x="408" y="-32"/>
      <point x="469" y="-32" type="curve"/>
      <point x="491" y="18"/>
      <point x="548" y="201"/>
    </contour>
    <contour>
      <point x="72" y="27" type="curve"/>
      <point x="132" y="27"/>
      <point x="218" y="36"/>
      <point x="251" y="47" type="curve"/>
      <point x="249" y="86"/>
      <point x="248" y="123"/>
      <point x="248" y="160" type="curve" smooth="yes"/>
      <point x="248" y="407"/>
      <point x="265" y="610"/>
      <point x="293" y="747" type="curve"/>
      <point x="266" y="754"/>
      <point x="246" y="755"/>
      <point x="216" y="755" type="curve" smooth="yes"/>
      <point x="158" y="755"/>
      <point x="93" y="747"/>
      <point x="62" y="729" type="curve"/>
      <point x="56" y="662"/>
      <point x="55" y="581"/>
      <point x="55" y="496" type="curve" smooth="yes"/>
      <point x="55" y="334"/>
      <point x="63" y="157"/>
    </contour>
  </outline>
</glyph>
<glyph name="j" format="1">
  <advance width="374"/>
  <unicode hex="006A"/>
  <outline>
    <contour>
      <point x="247" y="638"/>
      <point x="258" y="705"/>
      <point x="268" y="737" type="curve"/>
      <point x="246" y="748"/>
      <point x="208" y="756"/>
      <point x="158" y="756" type="curve" smooth="yes"/>
      <point x="112" y="756"/>
      <point x="74" y="748"/>
      <point x="43" y="731" type="curve"/>
      <point x="38" y="715"/>
      <point x="37" y="697"/>
      <point x="37" y="681" type="curve" smooth="yes"/>
      <point x="37" y="643"/>
      <point x="46" y="607"/>
      <point x="56" y="577" type="curve"/>
      <point x="141" y="576"/>
      <point x="197" y="579"/>
      <point x="240" y="596" type="curve"/>
    </contour>
    <contour>
      <point x="99" y="506"/>
      <point x="195" y="524"/>
      <point x="272" y="524" type="curve"/>
      <point x="295" y="444"/>
      <point x="324" y="290"/>
      <point x="324" y="100" type="curve" smooth="yes"/>
      <point x="324" y="-115"/>
      <point x="235" y="-224"/>
      <point x="124" y="-224" type="curve" smooth="yes"/>
      <point x="54" y="-224"/>
      <point x="14" y="-198"/>
      <point x="-7" y="-162" type="curve"/>
      <point x="9" y="-125"/>
      <point x="43" y="-75"/>
      <point x="84" y="-55" type="curve"/>
      <point x="92" y="-68"/>
      <point x="105" y="-73"/>
      <point x="114" y="-73" type="curve" smooth="yes"/>
      <point x="138" y="-73"/>
      <point x="141" y="-47"/>
      <point x="141" y="39" type="curve" smooth="yes"/>
      <point x="141" y="178"/>
      <point x="81" y="388"/>
      <point x="40" y="485" type="curve"/>
    </contour>
    <contour>
      <point x="162" y="560" type="move" name="top"/>
    </contour>
  </outline>
</glyph>
<glyph name="m" format="1">
  <advance width="872"/>
  <unicode hex="006D"/>
  <outline>
    <contour>
      <point x="503" y="58"/>
      <point x="530" y="217"/>
      <point x="530" y="343" type="curve" smooth="yes"/>
      <point x="530" y="484"/>
      <point x="476" y="532"/>
      <point x="406" y="532" type="curve" smooth="yes"/>
      <point x="314" y="532"/>
      <point x="252" y="469"/>
      <point x="217" y="375" type="curve"/>
      <point x="236" y="267" type="line"/>
      <point x="252" y="339"/>
      <point x="281" y="381"/>
      <point x="307" y="381" type="curve" smooth="yes"/>
      <point x="331" y="381"/>
      <point x="340" y="361"/>
      <point x="340" y="326" type="curve" smooth="yes"/>
      <point x="340" y="242"/>
      <point x="318" y="110"/>
      <point x="304" y="29" type="curve"/>
      <point x="369" y="18"/>
      <point x="432" y="10"/>
      <point x="490" y="10" type="curve"/>
    </contour>
    <contour>
      <point x="30" y="381"/>
      <point x="59" y="125"/>
      <point x="76" y="2" type="curve"/>
      <point x="131" y="2"/>
      <point x="204" y="11"/>
      <point x="241" y="22" type="curve"/>
      <point x="240" y="51"/>
      <point x="241" y="73"/>
      <point x="241" y="99" type="curve" smooth="yes"/>
      <point x="241" y="253"/>
      <point x="245" y="472"/>
      <point x="258" y="562" type="curve"/>
      <point x="230" y="568"/>
      <point x="204" y="570"/>
      <point x="181" y="570" type="curve" smooth="yes"/>
      <point x="124" y="570"/>
      <point x="62" y="560"/>
      <point x="30" y="544" type="curve"/>
    </contour>
    <contour>
      <point x="779" y="20"/>
      <point x="822" y="226"/>
      <point x="822" y="390" type="curve" smooth="yes"/>
      <point x="822" y="539"/>
      <point x="765" y="590"/>
      <point x="690" y="590" type="curve" smooth="yes"/>
      <point x="589" y="590"/>
      <point x="520" y="525"/>
      <point x="483" y="425" type="curve"/>
      <point x="520" y="314" type="line"/>
      <point x="538" y="393"/>
      <point x="565" y="439"/>
      <point x="591" y="439" type="curve" smooth="yes"/>
      <point x="615" y="439"/>
      <point x="624" y="419"/>
      <point x="624" y="384" type="curve" smooth="yes"/>
      <point x="624" y="269"/>
      <point x="586" y="91"/>
      <point x="561" y="-23" type="curve"/>
      <point x="632" y="-39"/>
      <point x="700" y="-43"/>
      <point x="762" y="-43" type="curve"/>
    </contour>
  </outline>
</glyph>
<glyph name="bn_ca" format="1">
  <advance width="676"/>
  <unicode hex="099A"/>
  <outline>
    <contour>
      <point x="479" y="-71"/>
      <point x="627" y="97"/>
      <point x="627" y="259" type="curve" smooth="yes"/>
      <point x="627" y="335"/>
      <point x="582" y="373"/>
      <point x="500" y="403" type="curve" smooth="yes"/>
      <point x="409" y="436"/>
      <point x="318" y="475"/>
      <point x="294" y="553" type="curve"/>
      <point x="259" y="461" type="line"/>
      <point x="273" y="396"/>
      <point x="329" y="354"/>
      <point x="394" y="325" type="curve" smooth="yes"/>
      <point x="432" y="309"/>
      <point x="455" y="299"/>
      <point x="455" y="279" type="curve" smooth="yes"/>
      <point x="455" y="190"/>
      <point x="363" y="35"/>
      <point x="275" y="35" type="curve" smooth="yes"/>
      <point x="239" y="35"/>
      <point x="223" y="51"/>
      <point x="223" y="87" type="curve" smooth="yes"/>
      <point x="223" y="211"/>
      <point x="265" y="443"/>
      <point x="314" y="576" type="curve"/>
      <point x="160" y="637" type="line"/>
      <point x="125" y="499"/>
      <point x="80" y="269"/>
      <point x="80" y="140" type="curve" smooth="yes"/>
      <point x="80" y="3"/>
      <point x="188" y="-71"/>
      <point x="296" y="-71" type="curve" smooth="yes"/>
    </contour>
    <contour>
      <point x="83" y="518"/>
      <point x="222" y="529"/>
      <point x="342" y="529" type="curve" smooth="yes"/>
      <point x="462" y="529"/>
      <point x="599" y="518"/>
      <point x="676" y="504" type="curve"/>
      <point x="680" y="521"/>
      <point x="685" y="549"/>
      <point x="685" y="579" type="curve" smooth="yes"/>
      <point x="685" y="600"/>
      <point x="683" y="624"/>
      <point x="676" y="639" type="curve"/>
      <point x="608" y="655"/>
      <point x="458" y="669"/>
      <point x="337" y="669" type="curve" smooth="yes"/>
      <point x="217" y="669"/>
      <point x="76" y="655"/>
      <point x="0" y="639" type="curve"/>
      <point x="-6" y="624"/>
      <point x="-10" y="601"/>
      <point x="-10" y="578" type="curve" smooth="yes"/>
      <point x="-10" y="550"/>
      <point x="-5" y="521"/>
      <point x="0" y="504" type="curve"/>
    </contour>
  </outline>
</glyph>
<glyph name="bn_ddha" format="1">
  <advance width="522"/>
  <unicode hex="09A2"/>
  <outline>
    <contour>
      <point x="374" y="-37"/>
      <point x="496" y="108"/>
      <point x="496" y="245" type="curve" smooth="yes"/>
      <point x="496" y="348"/>
      <point x="422" y="404"/>
      <point x="344" y="404" type="curve" smooth="yes"/>
      <point x="313" y="404"/>
      <point x="295" y="399"/>
      <point x="283" y="393" type="curve"/>
      <point x="260" y="363"/>
      <point x="242" y="306"/>
      <point x="242" y="258" type="curve" smooth="yes"/>
      <point x="242" y="251"/>
      <point x="243" y="242"/>
      <point x="244" y="239" type="curve"/>
      <point x="256" y="248"/>
      <point x="273" y="255"/>
      <point x="292" y="255" type="curve" smooth="yes"/>
      <point x="312" y="255"/>
      <point x="325" y="240"/>
      <point x="325" y="213" type="curve" smooth="yes"/>
      <point x="325" y="163"/>
      <point x="276" y="64"/>
      <point x="235" y="64" type="curve" smooth="yes"/>
      <point x="216" y="65"/>
      <point x="207" y="78"/>
      <point x="207" y="111" type="curve" smooth="yes"/>
      <point x="207" y="268"/>
      <point x="232" y="452"/>
      <point x="263" y="572" type="curve"/>
      <point x="102" y="636" type="line"/>
      <point x="79" y="499"/>
      <point x="59" y="326"/>
      <point x="59" y="159" type="curve" smooth="yes"/>
      <point x="59" y="39"/>
      <point x="144" y="-37"/>
      <point x="249" y="-37" type="curve" smooth="yes"/>
    </contour>
    <contour>
      <point x="52" y="517"/>
      <point x="143" y="531"/>
      <point x="256" y="531" type="curve" smooth="yes"/>
      <point x="345" y="531"/>
      <point x="453" y="518"/>
      <point x="522" y="504" type="curve"/>
      <point x="529" y="521"/>
      <point x="533" y="549"/>
      <point x="533" y="574" type="curve" smooth="yes"/>
      <point x="533" y="600"/>
      <point x="530" y="624"/>
      <point x="522" y="639" type="curve"/>
      <point x="454" y="657"/>
      <point x="343" y="670"/>
      <point x="253" y="670" type="curve" smooth="yes"/>
      <point x="141" y="670"/>
      <point x="49" y="656"/>
      <point x="0" y="639" type="curve"/>
      <point x="-5" y="623"/>
      <point x="-8" y="597"/>
      <point x="-8" y="572" type="curve" smooth="yes"/>
      <point x="-8" y="546"/>
      <point x="-4" y="520"/>
      <point x="0" y="504" type="curve"/>
    </contour>
  </outline>
</glyph>
<glyph name="bn_nna" format="1">
  <advance width="688"/>
  <unicode hex="09A3"/>
  <outline>
    <contour>
      <point x="511" y="275" type="line"/>
      <point x="514" y="492"/>
      <point x="418" y="660"/>
      <point x="248" y="660" type="curve" smooth="yes"/>
      <point x="119" y="660"/>
      <point x="38" y="555"/>
      <point x="38" y="431" type="curve" smooth="yes"/>
      <point x="38" y="303"/>
      <point x="122" y="205"/>
      <point x="232" y="205" type="curve" smooth="yes"/>
      <point x="320" y="205"/>
      <point x="384" y="266"/>
      <point x="384" y="338" type="curve" smooth="yes"/>
      <point x="384" y="350"/>
      <point x="381" y="357"/>
      <point x="376" y="362" type="curve"/>
      <point x="346" y="402"/>
      <point x="297" y="431"/>
      <point x="251" y="446" type="curve"/>
      <point x="257" y="429"/>
      <point x="262" y="408"/>
      <point x="262" y="393" type="curve" smooth="yes"/>
      <point x="262" y="359"/>
      <point x="244" y="323"/>
      <point x="206" y="323" type="curve" smooth="yes"/>
      <point x="175" y="323"/>
      <point x="147" y="341"/>
      <point x="147" y="376" type="curve" smooth="yes"/>
      <point x="147" y="429"/>
      <point x="194" y="475"/>
      <point x="266" y="475" type="curve" smooth="yes"/>
      <point x="346" y="475"/>
      <point x="453" y="427"/>
      <point x="453" y="322" type="curve" smooth="yes"/>
      <point x="453" y="302"/>
      <point x="449" y="262"/>
      <point x="441" y="207" type="curve"/>
    </contour>
    <contour>
      <point x="582" y="38"/>
      <point x="593" y="188"/>
      <point x="604" y="433" type="curve" smooth="yes"/>
      <point x="605" y="467"/>
      <point x="609" y="481"/>
      <point x="641" y="493" type="curve" smooth="yes"/>
      <point x="652" y="497"/>
      <point x="669" y="501"/>
      <point x="688" y="504" type="curve"/>
      <point x="694" y="523"/>
      <point x="700" y="550"/>
      <point x="700" y="577" type="curve" smooth="yes"/>
      <point x="700" y="601"/>
      <point x="695" y="626"/>
      <point x="688" y="639" type="curve"/>
      <point x="630" y="628"/>
      <point x="571" y="611"/>
      <point x="542" y="599" type="curve" smooth="yes"/>
      <point x="493" y="579"/>
      <point x="477" y="546"/>
      <point x="477" y="505" type="curve" smooth="yes"/>
      <point x="477" y="478"/>
      <point x="480" y="462"/>
      <point x="481" y="443" type="curve"/>
      <point x="455" y="462" type="line"/>
      <point x="456" y="246"/>
      <point x="429" y="78"/>
      <point x="365" y="-66" type="curve"/>
      <point x="405" y="-85"/>
      <point x="477" y="-99"/>
      <point x="531" y="-99" type="curve"/>
    </contour>
  </outline>
</glyph>
<glyph name="bn_pa" format="1">
  <advance width="648"/>
  <unicode hex="09AA"/>
  <outline>
    <contour>
      <point x="467" y="545"/>
      <point x="403" y="657"/>
      <point x="277" y="657" type="curve" smooth="yes"/>
      <point x="188" y="657"/>
      <point x="92" y="601"/>
      <point x="16" y="518" type="curve"/>
      <point x="17" y="476"/>
      <point x="25" y="434"/>
      <point x="43" y="394" type="curve"/>
      <point x="90" y="394"/>
      <point x="132" y="376"/>
      <point x="132" y="336" type="curve" smooth="yes"/>
      <point x="132" y="320"/>
      <point x="126" y="297"/>
      <point x="103" y="281" type="curve"/>
      <point x="191" y="343" type="line"/>
      <point x="208" y="353"/>
      <point x="223" y="381"/>
      <point x="223" y="408" type="curve" smooth="yes"/>
      <point x="223" y="441"/>
      <point x="203" y="470"/>
      <point x="171" y="488" type="curve"/>
      <point x="144" y="425" type="line"/>
      <point x="197" y="489"/>
      <point x="235" y="514"/>
      <point x="282" y="514" type="curve" smooth="yes"/>
      <point x="350" y="514"/>
      <point x="421" y="460"/>
      <point x="421" y="359" type="curve"/>
      <point x="467" y="389" type="line"/>
    </contour>
    <contour>
      <point x="422" y="-37"/>
      <point x="489" y="-32"/>
      <point x="527" y="-24" type="curve"/>
      <point x="526" y="-11"/>
      <point x="526" y="3"/>
      <point x="526" y="20" type="curve" smooth="yes"/>
      <point x="526" y="141"/>
      <point x="548" y="322"/>
      <point x="580" y="450" type="curve" smooth="yes"/>
      <point x="585" y="471"/>
      <point x="594" y="486"/>
      <point x="616" y="494" type="curve" smooth="yes"/>
      <point x="624" y="497"/>
      <point x="635" y="500"/>
      <point x="648" y="504" type="curve"/>
      <point x="654" y="523"/>
      <point x="659" y="551"/>
      <point x="659" y="578" type="curve" smooth="yes"/>
      <point x="659" y="602"/>
      <point x="655" y="626"/>
      <point x="648" y="639" type="curve"/>
      <point x="617" y="634"/>
      <point x="571" y="623"/>
      <point x="540" y="613" type="curve" smooth="yes"/>
      <point x="502" y="601"/>
      <point x="482" y="570"/>
      <point x="466" y="523" type="curve" smooth="yes"/>
      <point x="460" y="506"/>
      <point x="454" y="485"/>
      <point x="451" y="477" type="curve"/>
      <point x="445" y="455" type="line"/>
      <point x="414" y="347"/>
      <point x="365" y="65"/>
      <point x="361" y="-37" type="curve"/>
    </contour>
    <contour>
      <point x="285" y="221"/>
      <point x="391" y="319"/>
      <point x="449" y="410" type="curve"/>
      <point x="406" y="541" type="line"/>
      <point x="304" y="425"/>
      <point x="189" y="340"/>
      <point x="84" y="269" type="curve"/>
      <point x="104" y="217"/>
      <point x="135" y="173"/>
      <point x="179" y="139" type="curve"/>
    </contour>
  </outline>
</glyph>
<glyph name="bn_ba" format="1">
  <advance width="577"/>
  <unicode hex="09AC"/>
  <outline>
    <contour>
      <point x="396" y="-140" type="line"/>
      <point x="353" y="18"/>
      <point x="252" y="123"/>
      <point x="153" y="182" type="curve"/>
      <point x="144" y="120" type="line"/>
      <point x="217" y="209"/>
      <point x="331" y="295"/>
      <point x="421" y="331" type="curve"/>
      <point x="385" y="508" type="line"/>
      <point x="222" y="436"/>
      <point x="102" y="339"/>
      <point x="21" y="238" type="curve"/>
      <point x="28" y="173"/>
      <point x="50" y="119"/>
      <point x="94" y="59" type="curve"/>
      <point x="201" y="32"/>
      <point x="296" y="-49"/>
      <point x="372" y="-211" type="curve"/>
    </contour>
    <contour>
      <point x="425" y="-209"/>
      <point x="493" y="-198"/>
      <point x="538" y="-171" type="curve"/>
      <point x="506" y="-51"/>
      <point x="490" y="176"/>
      <point x="490" y="335" type="curve" smooth="yes"/>
      <point x="490" y="406"/>
      <point x="493" y="474"/>
      <point x="496" y="547" type="curve"/>
      <point x="385" y="574" type="line"/>
      <point x="361" y="421"/>
      <point x="351" y="299"/>
      <point x="351" y="155" type="curve" smooth="yes"/>
      <point x="351" y="46"/>
      <point x="358" y="-148"/>
      <point x="372" y="-211" type="curve"/>
    </contour>
    <contour>
      <point x="84" y="521"/>
      <point x="194" y="537"/>
      <point x="305" y="537" type="curve" smooth="yes"/>
      <point x="392" y="537"/>
      <point x="507" y="521"/>
      <point x="577" y="504" type="curve"/>
      <point x="583" y="522"/>
      <point x="588" y="550"/>
      <point x="588" y="579" type="curve" smooth="yes"/>
      <point x="588" y="603"/>
      <point x="584" y="624"/>
      <point x="577" y="639" type="curve"/>
      <point x="514" y="660"/>
      <point x="398" y="678"/>
      <point x="310" y="678" type="curve" smooth="yes"/>
      <point x="197" y="678"/>
      <point x="83" y="660"/>
      <point x="0" y="639" type="curve"/>
      <point x="-8" y="623"/>
      <point x="-11" y="604"/>
      <point x="-11" y="581" type="curve" smooth="yes"/>
      <point x="-11" y="551"/>
      <point x="-6" y="523"/>
      <point x="0" y="504" type="curve"/>
    </contour>
  </outline>
</glyph>
<glyph name="bn_ikaar" format="1">
  <advance width="288"/>
  <unicode hex="09BF"/>
  <outline>
    <contour>
      <point x="146" y="-69"/>
      <point x="223" y="-61"/>
      <point x="260" y="-50" type="curve"/>
      <point x="228" y="119"/>
      <point x="213" y="279"/>
      <point x="223" y="497" type="curve"/>
      <point x="189" y="577" type="line"/>
      <point x="175" y="617"/>
      <point x="164" y="652"/>
      <point x="164" y="699" type="curve" smooth="yes"/>
      <point x="164" y="777"/>
      <point x="212" y="811"/>
      <point x="304" y="811" type="curve" smooth="yes"/>
      <point x="426" y="811"/>
      <point x="528" y="786"/>
      <point x="708" y="708" type="curve"/>
      <point x="731" y="738"/>
      <point x="748" y="767"/>
      <point x="758" y="803" type="curve"/>
      <point x="616" y="869"/>
      <point x="413" y="937"/>
      <point x="248" y="937" type="curve" smooth="yes"/>
      <point x="101" y="937"/>
      <point x="24" y="865"/>
      <point x="24" y="765" type="curve" smooth="yes"/>
      <point x="24" y="671"/>
      <point x="88" y="609"/>
      <point x="154" y="542" type="curve"/>
      <point x="121" y="477" type="line"/>
      <point x="75" y="479" type="line"/>
      <point x="68" y="339"/>
      <point x="73" y="80"/>
      <point x="90" y="-69" type="curve"/>
    </contour>
    <contour>
      <point x="164" y="534" type="line"/>
      <point x="135" y="583"/>
      <point x="61" y="624"/>
      <point x="0" y="639" type="curve"/>
      <point x="-16" y="616"/>
      <point x="-12" y="534"/>
      <point x="0" y="504" type="curve"/>
      <point x="74" y="492"/>
      <point x="73" y="410"/>
      <point x="73" y="368" type="curve"/>
    </contour>
    <contour>
      <point x="215" y="468"/>
      <point x="241" y="496"/>
      <point x="288" y="504" type="curve"/>
      <point x="300" y="542"/>
      <point x="305" y="614"/>
      <point x="288" y="639" type="curve"/>
      <point x="203" y="624"/>
      <point x="121" y="580"/>
      <point x="84" y="500" type="curve"/>
      <point x="201" y="434" type="line"/>
    </contour>
  </outline>
</glyph>
<glyph name="bn_khanda_ta" format="1">
  <advance width="505"/>
  <unicode hex="09CE"/>
  <outline>
    <contour>
      <point x="113" y="429"/>
      <point x="190" y="495"/>
      <point x="280" y="495" type="curve" smooth="yes"/>
      <point x="329" y="495"/>
      <point x="350" y="476"/>
      <point x="350" y="445" type="curve" smooth="yes"/>
      <point x="350" y="414"/>
      <point x="328" y="396"/>
      <point x="296" y="396" type="curve" smooth="yes"/>
      <point x="254" y="396"/>
      <point x="228" y="437"/>
      <point x="225" y="522" type="curve"/>
      <point x="137" y="490" type="line"/>
      <point x="142" y="363"/>
      <point x="198" y="275"/>
      <point x="294" y="275" type="curve" smooth="yes"/>
      <point x="389" y="275"/>
      <point x="442" y="363"/>
      <point x="442" y="456" type="curve" smooth="yes"/>
      <point x="442" y="546"/>
      <point x="386" y="638"/>
      <point x="267" y="638" type="curve" smooth="yes"/>
      <point x="125" y="638"/>
      <point x="31" y="494"/>
      <point x="31" y="332" type="curve" smooth="yes"/>
      <point x="31" y="181"/>
      <point x="113" y="145"/>
      <point x="217" y="102" type="curve" smooth="yes"/>
      <point x="311" y="63"/>
      <point x="331" y="53"/>
      <point x="331" y="-59" type="curve"/>
      <point x="381" y="-56"/>
      <point x="446" y="-43"/>
      <point x="479" y="-29" type="curve"/>
      <point x="483" y="139"/>
      <point x="419" y="183"/>
      <point x="278" y="242" type="curve" smooth="yes"/>
      <point x="183" y="278"/>
      <point x="113" y="303"/>
      <point x="113" y="365" type="curve" smooth="yes"/>
    </contour>
  </outline>
</glyph>
<glyph name="bn_two" format="1">
  <advance width="550"/>
  <unicode hex="09E8"/>
  <outline>
    <contour>
      <point x="322" y="332"/>
      <point x="285" y="313"/>
      <point x="213" y="313" type="curve" smooth="yes"/>
      <point x="167" y="313"/>
      <point x="107" y="320"/>
      <point x="39" y="340" type="curve"/>
      <point x="60" y="160" type="line"/>
      <point x="193" y="130"/>
      <point x="328" y="63"/>
      <point x="472" y="-54" type="curve"/>
      <point x="502" y="-25"/>
      <point x="528" y="9"/>
      <point x="548" y="41" type="curve"/>
      <point x="433" y="115"/>
      <point x="335" y="175"/>
      <point x="235" y="219" type="curve"/>
      <point x="182" y="170" type="line"/>
      <point x="208" y="167"/>
      <point x="234" y="165"/>
      <point x="258" y="165" type="curve" smooth="yes"/>
      <point x="380" y="165"/>
      <point x="469" y="208"/>
      <point x="469" y="316" type="curve" smooth="yes"/>
      <point x="469" y="489"/>
      <point x="257" y="480"/>
      <point x="237" y="604" type="curve"/>
      <point x="183" y="578"/>
      <point x="133" y="545"/>
      <point x="86" y="506" type="curve"/>
      <point x="108" y="396"/>
      <point x="322" y="438"/>
      <point x="322" y="364" type="curve" smooth="yes"/>
    </contour>
  </outline>
</glyph>
<glyph name="bn_d_dh_ba" format="1">
  <advance width="711"/>
  <outline>
    <contour>
      <point x="230" y="280"/>
      <point x="330" y="355"/>
      <point x="370" y="355" type="curve" smooth="yes"/>
      <point x="391" y="355"/>
      <point x="399" y="342"/>
      <point x="399" y="321" type="curve" smooth="yes"/>
      <point x="399" y="295"/>
      <point x="399" y="243"/>
      <point x="379" y="176" type="curve"/>
      <point x="499" y="234" type="line"/>
      <point x="499" y="258"/>
      <point x="499" y="284"/>
      <point x="499" y="308" type="curve" smooth="yes"/>
      <point x="499" y="405"/>
      <point x="418" y="496"/>
      <point x="340" y="496" type="curve" smooth="yes"/>
      <point x="277" y="496"/>
      <point x="177" y="441"/>
      <point x="100" y="365" type="curve"/>
      <point x="194" y="307" type="line"/>
      <point x="201" y="376"/>
      <point x="207" y="448"/>
      <point x="207" y="510" type="curve" smooth="yes"/>
      <point x="207" y="525"/>
      <point x="207" y="539"/>
      <point x="206" y="553" type="curve"/>
      <point x="102" y="539" type="line"/>
      <point x="101" y="470"/>
      <point x="83" y="386"/>
      <point x="56" y="314" type="curve"/>
      <point x="84" y="275"/>
      <point x="136" y="248"/>
      <point x="176" y="238" type="curve"/>
    </contour>
    <contour>
      <point x="385" y="-206" type="line"/>
      <point x="367" y="-150"/>
      <point x="311" y="-105"/>
      <point x="249" y="-81" type="curve"/>
      <point x="233" y="-131" type="line"/>
      <point x="265" y="-98"/>
      <point x="340" y="-47"/>
      <point x="377" y="-33" type="curve"/>
      <point x="373" y="93" type="line"/>
      <point x="304" y="61"/>
      <point x="206" y="-2"/>
      <point x="156" y="-44" type="curve"/>
      <point x="160" y="-89"/>
      <point x="169" y="-116"/>
      <point x="188" y="-157" type="curve"/>
      <point x="261" y="-168"/>
      <point x="329" y="-206"/>
      <point x="369" y="-254" type="curve"/>
    </contour>
    <contour>
      <point x="408" y="-254"/>
      <point x="465" y="-245"/>
      <point x="506" y="-223" type="curve"/>
      <point x="486" y="-174"/>
      <point x="474" y="-92"/>
      <point x="474" y="-12" type="curve" smooth="yes"/>
      <point x="474" y="55"/>
      <point x="483" y="133"/>
      <point x="500" y="207" type="curve"/>
      <point x="384" y="180" type="line"/>
      <point x="369" y="130"/>
      <point x="358" y="69"/>
      <point x="359" y="19" type="curve"/>
      <point x="362" y="-18" type="line"/>
      <point x="361" y="-27"/>
      <point x="361" y="-42"/>
      <point x="361" y="-54" type="curve" smooth="yes"/>
      <point x="361" y="-115"/>
      <point x="369" y="-214"/>
      <point x="369" y="-254" type="curve"/>
    </contour>
    <contour>
      <point x="334" y="-18" type="line"/>
      <point x="310" y="41"/>
      <point x="264" y="91"/>
      <point x="216" y="118" type="curve"/>
      <point x="201" y="56" type="line"/>
      <point x="263" y="104"/>
      <point x="351" y="150"/>
      <point x="441" y="187" type="curve"/>
      <point x="449" y="330" type="line"/>
      <point x="335" y="291"/>
      <point x="182" y="211"/>
      <point x="115" y="163" type="curve"/>
      <point x="119" y="116"/>
      <point x="134" y="78"/>
      <point x="160" y="33" type="curve"/>
      <point x="216" y="24"/>
      <point x="263" y="-8"/>
      <point x="300" y="-52" type="curve"/>
    </contour>
    <contour>
      <point x="613" y="-140"/>
      <point x="662" y="-125"/>
      <point x="695" y="-106" type="curve"/>
      <point x="667" y="-42"/>
      <point x="654" y="26"/>
      <point x="654" y="106" type="curve" smooth="yes"/>
      <point x="654" y="146"/>
      <point x="657" y="190"/>
      <point x="664" y="238" type="curve"/>
      <point x="566" y="350" type="line"/>
      <point x="526" y="338"/>
      <point x="487" y="324"/>
      <point x="446" y="308" type="curve"/>
      <point x="439" y="167" type="line"/>
      <point x="488" y="187"/>
      <point x="541" y="199"/>
      <point x="586" y="211" type="curve"/>
      <point x="553" y="253" type="line"/>
      <point x="542" y="184"/>
      <point x="537" y="119"/>
      <point x="537" y="58" type="curve" smooth="yes"/>
      <point x="537" y="-14"/>
      <point x="545" y="-79"/>
      <point x="562" y="-140" type="curve"/>
    </contour>
    <contour>
      <point x="81" y="520"/>
      <point x="206" y="535"/>
      <point x="349" y="535" type="curve" smooth="yes"/>
      <point x="491" y="535"/>
      <point x="631" y="520"/>
      <point x="711" y="504" type="curve"/>
      <point x="716" y="521"/>
      <point x="721" y="547"/>
      <point x="721" y="577" type="curve" smooth="yes"/>
      <point x="721" y="602"/>
      <point x="717" y="624"/>
      <point x="711" y="639" type="curve"/>
      <point x="640" y="658"/>
      <point x="497" y="674"/>
      <point x="353" y="674" type="curve" smooth="yes"/>
      <point x="209" y="674"/>
      <point x="79" y="658"/>
      <point x="0" y="639" type="curve"/>
      <point x="-7" y="629"/>
      <point x="-11" y="603"/>
      <point x="-11" y="580" type="curve" smooth="yes"/>
      <point x="-11" y="548"/>
      <point x="-6" y="520"/>
      <point x="0" y="504" type="curve"/>
    </contour>
  </outline>
</glyph>
<glyph name="bn_da.001" format="1">
  <advance width="540"/>
  <outline>
    <contour>
      <point x="393" y="-37"/>
      <point x="462" y="-23"/>
      <point x="489" y="-7" type="curve"/>
      <point x="479" y="48"/>
      <point x="474" y="99"/>
      <point x="474" y="147" type="curve" smooth="yes"/>
      <point x="474" y="231"/>
      <point x="488" y="306"/>
      <point x="509" y="378" type="curve"/>
      <point x="465" y="436"/>
      <point x="421" y="473"/>
      <point x="361" y="496" type="curve"/>
      <point x="256" y="433"/>
      <point x="156" y="329"/>
      <point x="57" y="166" type="curve"/>
      <point x="205" y="236" type="line"/>
      <point x="213" y="324"/>
      <point x="220" y="413"/>
      <point x="220" y="492" type="curve" smooth="yes"/>
      <point x="220" y="513"/>
      <point x="219" y="533"/>
      <point x="218" y="552" type="curve"/>
      <point x="101" y="538" type="line"/>
      <point x="98" y="420"/>
      <point x="73" y="280"/>
      <point x="34" y="158" type="curve"/>
      <point x="70" y="132"/>
      <point x="144" y="110"/>
      <point x="198" y="104" type="curve"/>
      <point x="253" y="196"/>
      <point x="350" y="299"/>
      <point x="446" y="357" type="curve"/>
      <point x="392" y="359" type="line"/>
      <point x="363" y="283"/>
      <point x="347" y="188"/>
      <point x="347" y="97" type="curve" smooth="yes"/>
      <point x="347" y="51"/>
      <point x="352" y="5"/>
      <point x="360" y="-37" type="curve"/>
    </contour>
    <contour>
      <point x="68" y="518"/>
      <point x="167" y="531"/>
      <point x="290" y="531" type="curve" smooth="yes"/>
      <point x="376" y="531"/>
      <point x="487" y="518"/>
      <point x="540" y="504" type="curve"/>
      <point x="545" y="522"/>
      <point x="549" y="552"/>
      <point x="549" y="582" type="curve" smooth="yes"/>
      <point x="549" y="604"/>
      <point x="546" y="625"/>
      <point x="540" y="639" type="curve"/>
      <point x="492" y="656"/>
      <point x="379" y="670"/>
      <point x="294" y="670" type="curve" smooth="yes"/>
      <point x="170" y="670"/>
      <point x="67" y="656"/>
      <point x="0" y="639" type="curve"/>
      <point x="-8" y="626"/>
      <point x="-11" y="605"/>
      <point x="-11" y="582" type="curve" smooth="yes"/>
      <point x="-11" y="554"/>
      <point x="-6" y="523"/>
      <point x="0" y="504" type="curve"/>
    </contour>
  </outline>
</glyph>
<glyph name="bn_ikaar.fl.b" format="1">
  <advance width="288"/>
  <outline>
    <contour>
      <point x="146" y="-69"/>
      <point x="223" y="-61"/>
      <point x="260" y="-50" type="curve"/>
      <point x="228" y="119"/>
      <point x="213" y="279"/>
      <point x="223" y="497" type="curve"/>
      <point x="189" y="577" type="line"/>
      <point x="172" y="630"/>
      <point x="156" y="686"/>
      <point x="156" y="744" type="curve" smooth="yes"/>
      <point x="156" y="860"/>
      <point x="221" y="893"/>
      <point x="369" y="893" type="curve" smooth="yes"/>
      <point x="451" y="893"/>
      <point x="568" y="883"/>
      <point x="741" y="850" type="curve"/>
      <point x="757" y="880"/>
      <point x="766" y="909"/>
      <point x="769" y="947" type="curve"/>
      <point x="642" y="982"/>
      <point x="463" y="1011"/>
      <point x="335" y="1011" type="curve" smooth="yes"/>
      <point x="117" y="1011"/>
      <point x="19" y="927"/>
      <point x="19" y="801" type="curve" smooth="yes"/>
      <point x="19" y="726"/>
      <point x="54" y="662"/>
      <point x="98" y="605" type="curve"/>
      <point x="75" y="479" type="line"/>
      <point x="68" y="339"/>
      <point x="73" y="80"/>
      <point x="90" y="-69" type="curve"/>
    </contour>
    <contour>
      <point x="116" y="557" type="line"/>
      <point x="116" y="607"/>
      <point x="70" y="642"/>
      <point x="32" y="642" type="curve"/>
      <point x="21" y="642"/>
      <point x="10" y="641"/>
      <point x="0" y="639" type="curve"/>
      <point x="-4" y="622"/>
      <point x="-10" y="601"/>
      <point x="-10" y="573" type="curve" smooth="yes"/>
      <point x="-10" y="551"/>
      <point x="-6" y="523"/>
      <point x="0" y="504" type="curve"/>
      <point x="4" y="505"/>
      <point x="10" y="507"/>
      <point x="21" y="507" type="curve" smooth="yes"/>
      <point x="67" y="507"/>
      <point x="73" y="473"/>
      <point x="73" y="416" type="curve"/>
    </contour>
    <contour>
      <point x="215" y="468"/>
      <point x="241" y="496"/>
      <point x="288" y="504" type="curve"/>
      <point x="300" y="542"/>
      <point x="305" y="614"/>
      <point x="288" y="639" type="curve"/>
      <point x="203" y="624"/>
      <point x="121" y="580"/>
      <point x="84" y="500" type="curve"/>
      <point x="201" y="434" type="line"/>
    </contour>
  </outline>
</glyph>
<glyph name="bn_ja.001" format="1">
  <advance width="760"/>
  <outline>
    <contour>
      <point x="477" y="-39"/>
      <point x="546" y="59"/>
      <point x="546" y="202" type="curve" smooth="yes"/>
      <point x="546" y="244"/>
      <point x="540" y="285"/>
      <point x="529" y="320" type="curve"/>
      <point x="492" y="348"/>
      <point x="443" y="378"/>
      <point x="403" y="397" type="curve"/>
      <point x="379" y="359"/>
      <point x="342" y="325"/>
      <point x="321" y="325" type="curve" smooth="yes"/>
      <point x="313" y="325"/>
      <point x="304" y="330"/>
      <point x="304" y="346" type="curve" smooth="yes"/>
      <point x="304" y="379"/>
      <point x="345" y="491"/>
      <point x="396" y="557" type="curve"/>
      <point x="233" y="559" type="line"/>
      <point x="221" y="519"/>
      <point x="199" y="448"/>
      <point x="199" y="388" type="curve" smooth="yes"/>
      <point x="199" y="271"/>
      <point x="283" y="197"/>
      <point x="363" y="197" type="curve" smooth="yes"/>
      <point x="412" y="197"/>
      <point x="446" y="225"/>
      <point x="482" y="249" type="curve"/>
      <point x="445" y="333" type="line"/>
      <point x="449" y="304"/>
      <point x="453" y="279"/>
      <point x="453" y="248" type="curve" smooth="yes"/>
      <point x="453" y="181"/>
      <point x="432" y="120"/>
      <point x="360" y="120" type="curve" smooth="yes"/>
      <point x="250" y="120"/>
      <point x="165" y="262"/>
      <point x="116" y="456" type="curve"/>
      <point x="80" y="445"/>
      <point x="44" y="431"/>
      <point x="11" y="414" type="curve"/>
      <point x="55" y="218"/>
      <point x="143" y="-39"/>
      <point x="349" y="-39" type="curve" smooth="yes"/>
    </contour>
    <contour>
      <point x="618" y="-33"/>
      <point x="692" y="-24"/>
      <point x="718" y="-13" type="curve"/>
      <point x="707" y="45"/>
      <point x="702" y="99"/>
      <point x="702" y="151" type="curve" smooth="yes"/>
      <point x="702" y="232"/>
      <point x="715" y="306"/>
      <point x="737" y="375" type="curve"/>
      <point x="717" y="431"/>
      <point x="683" y="473"/>
      <point x="647" y="496" type="curve"/>
      <point x="631" y="488"/>
      <point x="613" y="479"/>
      <point x="580" y="479" type="curve" smooth="yes"/>
      <point x="521" y="479"/>
      <point x="474" y="509"/>
      <point x="450" y="558" type="curve"/>
      <point x="367" y="544" type="line"/>
      <point x="402" y="424"/>
      <point x="516" y="343"/>
      <point x="633" y="343" type="curve" smooth="yes"/>
      <point x="693" y="343"/>
      <point x="708" y="364"/>
      <point x="712" y="384" type="curve"/>
      <point x="632" y="377" type="line"/>
      <point x="596" y="307"/>
      <point x="574" y="199"/>
      <point x="574" y="112" type="curve" smooth="yes"/>
      <point x="574" y="60"/>
      <point x="578" y="10"/>
      <point x="586" y="-33" type="curve"/>
    </contour>
    <contour>
      <point x="88" y="522"/>
      <point x="220" y="538"/>
      <point x="375" y="538" type="curve" smooth="yes"/>
      <point x="529" y="538"/>
      <point x="673" y="522"/>
      <point x="760" y="504" type="curve"/>
      <point x="766" y="521"/>
      <point x="770" y="549"/>
      <point x="770" y="577" type="curve" smooth="yes"/>
      <point x="770" y="601"/>
      <point x="767" y="624"/>
      <point x="760" y="639" type="curve"/>
      <point x="683" y="660"/>
      <point x="535" y="677"/>
      <point x="379" y="677" type="curve" smooth="yes"/>
      <point x="223" y="677"/>
      <point x="86" y="660"/>
      <point x="0" y="639" type="curve"/>
      <point x="-7" y="627"/>
      <point x="-11" y="604"/>
      <point x="-11" y="581" type="curve" smooth="yes"/>
      <point x="-11" y="552"/>
      <point x="-6" y="520"/>
      <point x="0" y="504" type="curve"/>
    </contour>
  </outline>
</glyph>
<glyph name="bn_k_ssa" format="1">
  <advance width="960"/>
  <outline>
    <contour>
      <point x="454" y="-22"/>
      <point x="505" y="29"/>
      <point x="511" y="115" type="curve"/>
      <point x="426" y="181" type="line"/>
      <point x="426" y="145"/>
      <point x="394" y="123"/>
      <point x="362" y="123" type="curve" smooth="yes"/>
      <point x="338" y="123"/>
      <point x="322" y="135"/>
      <point x="322" y="154" type="curve" smooth="yes"/>
      <point x="322" y="174"/>
      <point x="339" y="185"/>
      <point x="358" y="185" type="curve" smooth="yes"/>
      <point x="387" y="185"/>
      <point x="423" y="161"/>
      <point x="448" y="110" type="curve"/>
      <point x="467" y="210" type="line"/>
      <point x="440" y="247"/>
      <point x="402" y="266"/>
      <point x="362" y="266" type="curve" smooth="yes"/>
      <point x="289" y="266"/>
      <point x="239" y="207"/>
      <point x="239" y="129" type="curve" smooth="yes"/>
      <point x="239" y="46"/>
      <point x="296" y="-22"/>
      <point x="382" y="-22" type="curve" smooth="yes"/>
    </contour>
    <contour>
      <point x="246" y="201"/>
      <point x="301" y="268"/>
      <point x="301" y="358" type="curve" smooth="yes"/>
      <point x="301" y="375"/>
      <point x="299" y="390"/>
      <point x="296" y="406" type="curve"/>
      <point x="206" y="407" type="line"/>
      <point x="213" y="388"/>
      <point x="216" y="367"/>
      <point x="216" y="351" type="curve" smooth="yes"/>
      <point x="216" y="315"/>
      <point x="201" y="278"/>
      <point x="170" y="278" type="curve" smooth="yes"/>
      <point x="151" y="278"/>
      <point x="140" y="293"/>
      <point x="140" y="308" type="curve" smooth="yes"/>
      <point x="140" y="335"/>
      <point x="173" y="356"/>
      <point x="203" y="356" type="curve" smooth="yes"/>
      <point x="222" y="356"/>
      <point x="238" y="347"/>
      <point x="252" y="326" type="curve"/>
      <point x="258" y="466" type="line"/>
      <point x="235" y="482"/>
      <point x="208" y="493"/>
      <point x="170" y="493" type="curve" smooth="yes"/>
      <point x="84" y="493"/>
      <point x="23" y="441"/>
      <point x="23" y="356" type="curve" smooth="yes"/>
      <point x="23" y="267"/>
      <point x="86" y="201"/>
      <point x="166" y="201" type="curve" smooth="yes"/>
    </contour>
    <contour>
      <point x="639" y="-78" type="line"/>
      <point x="623" y="7"/>
      <point x="545" y="131"/>
      <point x="489" y="154" type="curve"/>
      <point x="401" y="82" type="line"/>
      <point x="488" y="46"/>
      <point x="562" y="-29"/>
      <point x="605" y="-110" type="curve"/>
    </contour>
    <contour>
      <point x="511" y="96"/>
      <point x="525" y="141"/>
      <point x="525" y="193" type="curve" smooth="yes"/>
      <point x="525" y="328"/>
      <point x="431" y="460"/>
      <point x="250" y="490" type="curve"/>
      <point x="269" y="353" type="line"/>
      <point x="362" y="353"/>
      <point x="422" y="328"/>
      <point x="422" y="258" type="curve" smooth="yes"/>
      <point x="422" y="229"/>
      <point x="409" y="204"/>
      <point x="397" y="188" type="curve"/>
      <point x="489" y="60" type="line"/>
    </contour>
    <contour>
      <point x="275" y="400"/>
      <point x="289" y="423"/>
      <point x="289" y="454" type="curve" smooth="yes"/>
      <point x="289" y="510"/>
      <point x="244" y="558"/>
      <point x="180" y="600" type="curve"/>
      <point x="127" y="526" type="line"/>
      <point x="175" y="530"/>
      <point x="199" y="513"/>
      <point x="199" y="482" type="curve" smooth="yes"/>
      <point x="199" y="466"/>
      <point x="193" y="451"/>
      <point x="187" y="442" type="curve"/>
      <point x="258" y="388" type="line"/>
    </contour>
    <contour>
      <point x="657" y="-110"/>
      <point x="721" y="-92"/>
      <point x="762" y="-67" type="curve"/>
      <point x="733" y="20"/>
      <point x="721" y="145"/>
      <point x="721" y="296" type="curve" smooth="yes"/>
      <point x="721" y="382"/>
      <point x="725" y="465"/>
      <point x="730" y="540" type="curve"/>
      <point x="614" y="560" type="line"/>
      <point x="585" y="445"/>
      <point x="578" y="286"/>
      <point x="578" y="176" type="curve" smooth="yes"/>
      <point x="578" y="28"/>
      <point x="587" y="-56"/>
      <point x="605" y="-110" type="curve"/>
    </contour>
    <contour>
      <point x="680" y="476" type="line"/>
      <point x="554" y="476"/>
      <point x="506" y="495"/>
      <point x="483" y="559" type="curve"/>
      <point x="389" y="558" type="line"/>
      <point x="406" y="425"/>
      <point x="503" y="324"/>
      <point x="689" y="324" type="curve"/>
    </contour>
    <contour>
      <point x="101" y="521"/>
      <point x="287" y="541"/>
      <point x="480" y="541" type="curve" smooth="yes"/>
      <point x="673" y="541"/>
      <point x="859" y="521"/>
      <point x="960" y="504" type="curve"/>
      <point x="966" y="520"/>
      <point x="971" y="549"/>
      <point x="971" y="578" type="curve" smooth="yes"/>
      <point x="971" y="604"/>
      <point x="967" y="629"/>
      <point x="960" y="639" type="curve"/>
      <point x="861" y="659"/>
      <point x="674" y="680"/>
      <point x="480" y="680" type="curve" smooth="yes"/>
      <point x="286" y="680"/>
      <point x="99" y="659"/>
      <point x="0" y="639" type="curve"/>
      <point x="-7" y="629"/>
      <point x="-11" y="604"/>
      <point x="-11" y="578" type="curve" smooth="yes"/>
      <point x="-11" y="549"/>
      <point x="-6" y="520"/>
      <point x="0" y="504" type="curve"/>
    </contour>
    <contour>
      <point x="908" y="125"/>
      <point x="946" y="180"/>
      <point x="946" y="248" type="curve" smooth="yes"/>
      <point x="946" y="369"/>
      <point x="838" y="466"/>
      <point x="691" y="482" type="curve"/>
      <point x="707" y="317" type="line"/>
      <point x="794" y="317"/>
      <point x="849" y="313"/>
      <point x="849" y="285" type="curve" smooth="yes"/>
      <point x="849" y="255"/>
      <point x="794" y="215"/>
      <point x="748" y="202" type="curve"/>
      <point x="774" y="143"/>
      <point x="824" y="102"/>
      <point x="865" y="94" type="curve"/>
    </contour>
  </outline>
</glyph>
<glyph name="bn_k_tt_ra" format="1">
  <advance width="719"/>
  <outline>
    <contour>
      <point x="510" y="-91"/>
      <point x="651" y="-13"/>
      <point x="651" y="85" type="curve" smooth="yes"/>
      <point x="651" y="156"/>
      <point x="583" y="197"/>
      <point x="503" y="197" type="curve" smooth="yes"/>
      <point x="483" y="197"/>
      <point x="469" y="193"/>
      <point x="457" y="188" type="curve"/>
      <point x="438" y="162"/>
      <point x="422" y="121"/>
      <point x="422" y="78" type="curve" smooth="yes"/>
      <point x="422" y="70"/>
      <point x="423" y="65"/>
      <point x="424" y="63" type="curve"/>
      <point x="435" y="69"/>
      <point x="445" y="74"/>
      <point x="460" y="74" type="curve" smooth="yes"/>
      <point x="475" y="74"/>
      <point x="484" y="68"/>
      <point x="484" y="57" type="curve" smooth="yes"/>
      <point x="484" y="28"/>
      <point x="427" y="-2"/>
      <point x="381" y="-2" type="curve" smooth="yes"/>
      <point x="357" y="-2"/>
      <point x="345" y="9"/>
      <point x="345" y="19" type="curve" smooth="yes"/>
      <point x="345" y="38"/>
      <point x="380" y="95"/>
      <point x="418" y="188" type="curve" smooth="yes"/>
      <point x="449" y="264"/>
      <point x="469" y="342"/>
      <point x="473" y="447" type="curve" smooth="yes"/>
      <point x="474" y="484"/>
      <point x="469" y="523"/>
      <point x="462" y="560" type="curve"/>
      <point x="349" y="548" type="line"/>
      <point x="349" y="309"/>
      <point x="302" y="217"/>
      <point x="262" y="161" type="curve"/>
      <point x="239" y="130" type="line"/>
      <point x="207" y="104"/>
      <point x="184" y="80"/>
      <point x="184" y="35" type="curve" smooth="yes"/>
      <point x="184" y="-48"/>
      <point x="278" y="-91"/>
      <point x="367" y="-91" type="curve" smooth="yes"/>
    </contour>
    <contour>
      <point x="500" y="-294"/>
      <point x="545" y="-288"/>
      <point x="583" y="-274" type="curve"/>
      <point x="588" y="-185"/>
      <point x="591" y="-89"/>
      <point x="591" y="-6" type="curve"/>
      <point x="463" y="-18" type="line"/>
      <point x="461" y="-93"/>
      <point x="454" y="-163"/>
      <point x="446" y="-220" type="curve"/>
      <point x="499" y="-265" type="line"/>
      <point x="445" y="-168"/>
      <point x="405" y="-111"/>
      <point x="336" y="-111" type="curve" smooth="yes"/>
      <point x="297" y="-111"/>
      <point x="228" y="-129"/>
      <point x="197" y="-129" type="curve" smooth="yes"/>
      <point x="170" y="-129"/>
      <point x="150" y="-110"/>
      <point x="150" y="-80" type="curve" smooth="yes"/>
      <point x="150" y="-64"/>
      <point x="155" y="-46"/>
      <point x="160" y="-30" type="curve"/>
      <point x="135" y="-20"/>
      <point x="98" y="-13"/>
      <point x="61" y="-13" type="curve"/>
      <point x="44" y="-47"/>
      <point x="32" y="-88"/>
      <point x="32" y="-132" type="curve" smooth="yes"/>
      <point x="32" y="-215"/>
      <point x="96" y="-270"/>
      <point x="197" y="-270" type="curve" smooth="yes"/>
      <point x="257" y="-270"/>
      <point x="309" y="-254"/>
      <point x="364" y="-254" type="curve" smooth="yes"/>
      <point x="418" y="-254"/>
      <point x="436" y="-274"/>
      <point x="459" y="-296" type="curve"/>
    </contour>
    <contour>
      <point x="295" y="152" type="line"/>
      <point x="266" y="228"/>
      <point x="215" y="287"/>
      <point x="154" y="323" type="curve"/>
      <point x="154" y="278" type="line"/>
      <point x="217" y="316"/>
      <point x="295" y="348"/>
      <point x="373" y="363" type="curve"/>
      <point x="358" y="520" type="line"/>
      <point x="206" y="485"/>
      <point x="99" y="440"/>
      <point x="21" y="388" type="curve"/>
      <point x="25" y="326"/>
      <point x="46" y="274"/>
      <point x="86" y="215" type="curve"/>
      <point x="145" y="202"/>
      <point x="196" y="166"/>
      <point x="236" y="92" type="curve"/>
    </contour>
    <contour>
      <point x="671" y="224"/>
      <point x="680" y="270"/>
      <point x="680" y="301" type="curve" smooth="yes"/>
      <point x="680" y="412"/>
      <point x="567" y="506"/>
      <point x="433" y="516" type="curve"/>
      <point x="445" y="357" type="line"/>
      <point x="519" y="358"/>
      <point x="589" y="353"/>
      <point x="589" y="328" type="curve" smooth="yes"/>
      <point x="589" y="308"/>
      <point x="545" y="290"/>
      <point x="498" y="272" type="curve"/>
      <point x="526" y="220"/>
      <point x="606" y="190"/>
      <point x="650" y="190" type="curve"/>
    </contour>
    <contour>
      <point x="81" y="520"/>
      <point x="210" y="535"/>
      <point x="353" y="535" type="curve" smooth="yes"/>
      <point x="495" y="535"/>
      <point x="639" y="520"/>
      <point x="719" y="504" type="curve"/>
      <point x="724" y="521"/>
      <point x="728" y="546"/>
      <point x="728" y="569" type="curve" smooth="yes"/>
      <point x="728" y="593"/>
      <point x="725" y="616"/>
      <point x="719" y="639" type="curve"/>
      <point x="648" y="658"/>
      <point x="501" y="674"/>
      <point x="357" y="674" type="curve" smooth="yes"/>
      <point x="213" y="674"/>
      <point x="79" y="658"/>
      <point x="0" y="639" type="curve"/>
      <point x="-8" y="626"/>
      <point x="-11" y="605"/>
      <point x="-11" y="582" type="curve" smooth="yes"/>
      <point x="-11" y="554"/>
      <point x="-6" y="519"/>
      <point x="0" y="504" type="curve"/>
    </contour>
    <contour>
      <point x="719" y="639" type="line"/>
      <point x="696" y="763"/>
      <point x="632" y="857"/>
      <point x="530" y="857" type="curve" smooth="yes"/>
      <point x="462" y="857"/>
      <point x="344" y="832"/>
      <point x="287" y="832" type="curve" smooth="yes"/>
      <point x="236" y="832"/>
      <point x="204" y="866"/>
      <point x="177" y="910" type="curve"/>
      <point x="154" y="892"/>
      <point x="121" y="862"/>
      <point x="96" y="823" type="curve"/>
      <point x="132" y="762"/>
      <point x="190" y="705"/>
      <point x="274" y="705" type="curve" smooth="yes"/>
      <point x="348" y="705"/>
      <point x="462" y="730"/>
      <point x="527" y="730" type="curve" smooth="yes"/>
      <point x="606" y="730"/>
      <point x="632" y="668"/>
      <point x="646" y="609" type="curve"/>
    </contour>
  </outline>
</glyph>
<glyph name="bn_k_tta" format="1">
  <advance width="720"/>
  <outline>
    <contour>
      <point x="519" y="-132"/>
      <point x="660" y="-49"/>
      <point x="660" y="57" type="curve" smooth="yes"/>
      <point x="660" y="128"/>
      <point x="592" y="169"/>
      <point x="512" y="169" type="curve" smooth="yes"/>
      <point x="492" y="169"/>
      <point x="478" y="165"/>
      <point x="466" y="160" type="curve"/>
      <point x="447" y="134"/>
      <point x="431" y="93"/>
      <point x="431" y="50" type="curve" smooth="yes"/>
      <point x="431" y="42"/>
      <point x="432" y="37"/>
      <point x="433" y="35" type="curve"/>
      <point x="444" y="41"/>
      <point x="454" y="46"/>
      <point x="469" y="46" type="curve" smooth="yes"/>
      <point x="482" y="46"/>
      <point x="491" y="40"/>
      <point x="491" y="29" type="curve" smooth="yes"/>
      <point x="491" y="-3"/>
      <point x="432" y="-37"/>
      <point x="382" y="-37" type="curve" smooth="yes"/>
      <point x="358" y="-37"/>
      <point x="346" y="-26"/>
      <point x="346" y="-16" type="curve" smooth="yes"/>
      <point x="346" y="9"/>
      <point x="413" y="83"/>
      <point x="448" y="216" type="curve" smooth="yes"/>
      <point x="462" y="269"/>
      <point x="474" y="335"/>
      <point x="474" y="412" type="curve" smooth="yes"/>
      <point x="474" y="458"/>
      <point x="466" y="506"/>
      <point x="459" y="560" type="curve"/>
      <point x="350" y="548" type="line"/>
      <point x="350" y="313"/>
      <point x="307" y="208"/>
      <point x="268" y="142" type="curve"/>
      <point x="259" y="121" type="line"/>
      <point x="222" y="77"/>
      <point x="187" y="47"/>
      <point x="187" y="-12" type="curve" smooth="yes"/>
      <point x="187" y="-87"/>
      <point x="274" y="-132"/>
      <point x="375" y="-132" type="curve" smooth="yes"/>
    </contour>
    <contour>
      <point x="302" y="144" type="line"/>
      <point x="271" y="221"/>
      <point x="217" y="278"/>
      <point x="154" y="315" type="curve"/>
      <point x="154" y="268" type="line"/>
      <point x="217" y="308"/>
      <point x="295" y="344"/>
      <point x="373" y="359" type="curve"/>
      <point x="358" y="521" type="line"/>
      <point x="206" y="483"/>
      <point x="99" y="436"/>
      <point x="21" y="380" type="curve"/>
      <point x="25" y="317"/>
      <point x="46" y="262"/>
      <point x="86" y="202" type="curve"/>
      <point x="150" y="189"/>
      <point x="204" y="153"/>
      <point x="248" y="79" type="curve"/>
    </contour>
    <contour>
      <point x="667" y="208"/>
      <point x="680" y="255"/>
      <point x="680" y="293" type="curve" smooth="yes"/>
      <point x="680" y="408"/>
      <point x="566" y="510"/>
      <point x="433" y="520" type="curve"/>
      <point x="438" y="353" type="line"/>
      <point x="502" y="357"/>
      <point x="589" y="355"/>
      <point x="589" y="323" type="curve" smooth="yes"/>
      <point x="589" y="303"/>
      <point x="548" y="282"/>
      <point x="495" y="260" type="curve"/>
      <point x="523" y="210"/>
      <point x="602" y="176"/>
      <point x="645" y="176" type="curve"/>
    </contour>
    <contour>
      <point x="81" y="520"/>
      <point x="210" y="535"/>
      <point x="353" y="535" type="curve" smooth="yes"/>
      <point x="495" y="535"/>
      <point x="639" y="520"/>
      <point x="719" y="504" type="curve"/>
      <point x="724" y="521"/>
      <point x="728" y="545"/>
      <point x="728" y="573" type="curve" smooth="yes"/>
      <point x="728" y="597"/>
      <point x="723" y="624"/>
      <point x="719" y="639" type="curve"/>
      <point x="648" y="658"/>
      <point x="501" y="674"/>
      <point x="357" y="674" type="curve" smooth="yes"/>
      <point x="213" y="674"/>
      <point x="79" y="658"/>
      <point x="0" y="639" type="curve"/>
      <point x="-8" y="622"/>
      <point x="-11" y="601"/>
      <point x="-11" y="578" type="curve" smooth="yes"/>
      <point x="-11" y="550"/>
      <point x="-6" y="519"/>
      <point x="0" y="504" type="curve"/>
    </contour>
    <contour>
      <point x="719" y="639" type="line"/>
      <point x="696" y="763"/>
      <point x="632" y="857"/>
      <point x="530" y="857" type="curve" smooth="yes"/>
      <point x="462" y="857"/>
      <point x="341" y="832"/>
      <point x="284" y="832" type="curve" smooth="yes"/>
      <point x="233" y="832"/>
      <point x="201" y="866"/>
      <point x="174" y="910" type="curve"/>
      <point x="150" y="892"/>
      <point x="115" y="863"/>
      <point x="89" y="825" type="curve"/>
      <point x="126" y="763"/>
      <point x="185" y="705"/>
      <point x="271" y="705" type="curve" smooth="yes"/>
      <point x="345" y="705"/>
      <point x="462" y="730"/>
      <point x="527" y="730" type="curve" smooth="yes"/>
      <point x="606" y="730"/>
      <point x="632" y="668"/>
      <point x="646" y="609" type="curve"/>
    </contour>
  </outline>
</glyph>
<glyph name="bn_l_ga_ukaar" format="1">
  <advance width="696"/>
  <outline>
    <contour>
      <point x="97" y="524"/>
      <point x="226" y="535"/>
      <point x="341" y="535" type="curve" smooth="yes"/>
      <point x="460" y="535"/>
      <point x="603" y="523"/>
      <point x="696" y="504" type="curve"/>
      <point x="702" y="525"/>
      <point x="705" y="553"/>
      <point x="705" y="578" type="curve" smooth="yes"/>
      <point x="705" y="603"/>
      <point x="702" y="626"/>
      <point x="696" y="639" type="curve"/>
      <point x="620" y="660"/>
      <point x="473" y="674"/>
      <point x="346" y="674" type="curve" smooth="yes"/>
      <point x="223" y="674"/>
      <point x="89" y="661"/>
      <point x="0" y="639" type="curve"/>
      <point x="-7" y="627"/>
      <point x="-11" y="607"/>
      <point x="-11" y="581" type="curve" smooth="yes"/>
      <point x="-11" y="555"/>
      <point x="-7" y="524"/>
      <point x="0" y="504" type="curve"/>
    </contour>
    <contour>
      <point x="278" y="210"/>
      <point x="294" y="270"/>
      <point x="294" y="319" type="curve"/>
      <point x="281" y="314"/>
      <point x="265" y="311"/>
      <point x="249" y="311" type="curve" smooth="yes"/>
      <point x="212" y="311"/>
      <point x="172" y="322"/>
      <point x="172" y="340" type="curve" smooth="yes"/>
      <point x="172" y="353"/>
      <point x="193" y="361"/>
      <point x="224" y="361" type="curve" smooth="yes"/>
      <point x="266" y="361"/>
      <point x="302" y="343"/>
      <point x="331" y="308" type="curve"/>
      <point x="355" y="363" type="line"/>
      <point x="332" y="449"/>
      <point x="274" y="507"/>
      <point x="210" y="507" type="curve" smooth="yes"/>
      <point x="135" y="507"/>
      <point x="82" y="443"/>
      <point x="82" y="355" type="curve" smooth="yes"/>
      <point x="82" y="247"/>
      <point x="152" y="182"/>
      <point x="252" y="173" type="curve"/>
    </contour>
    <contour>
      <point x="377" y="298"/>
      <point x="403" y="307"/>
      <point x="423" y="315" type="curve"/>
      <point x="345" y="448" type="line"/>
      <point x="271" y="391" type="line"/>
      <point x="343" y="291" type="line"/>
    </contour>
    <contour>
      <point x="504" y="325" type="line"/>
      <point x="497" y="432"/>
      <point x="454" y="507"/>
      <point x="398" y="507" type="curve" smooth="yes"/>
      <point x="357" y="507"/>
      <point x="322" y="460"/>
      <point x="318" y="400" type="curve"/>
      <point x="359" y="322" type="line"/>
      <point x="423" y="315" type="line"/>
      <point x="411" y="335"/>
      <point x="401" y="353"/>
      <point x="401" y="363" type="curve" smooth="yes"/>
      <point x="401" y="374"/>
      <point x="408" y="380"/>
      <point x="419" y="380" type="curve" smooth="yes"/>
      <point x="452" y="380"/>
      <point x="474" y="332"/>
      <point x="474" y="273" type="curve"/>
    </contour>
    <contour>
      <point x="614" y="172" type="line"/>
      <point x="613" y="208"/>
      <point x="612" y="247"/>
      <point x="612" y="286" type="curve" smooth="yes"/>
      <point x="612" y="371"/>
      <point x="615" y="420"/>
      <point x="629" y="540" type="curve"/>
      <point x="510" y="573" type="line"/>
      <point x="484" y="472"/>
      <point x="472" y="351"/>
      <point x="469" y="172" type="curve"/>
    </contour>
    <contour>
      <point x="392" y="-39"/>
      <point x="416" y="-6"/>
      <point x="416" y="35" type="curve" smooth="yes"/>
      <point x="416" y="93"/>
      <point x="366" y="143"/>
      <point x="307" y="143" type="curve" smooth="yes"/>
      <point x="270" y="143"/>
      <point x="235" y="123"/>
      <point x="209" y="105" type="curve"/>
      <point x="285" y="98" type="line"/>
      <point x="270" y="110"/>
      <point x="262" y="124"/>
      <point x="262" y="136" type="curve" smooth="yes"/>
      <point x="262" y="153"/>
      <point x="285" y="167"/>
      <point x="314" y="167" type="curve" smooth="yes"/>
      <point x="367" y="167"/>
      <point x="418" y="123"/>
      <point x="427" y="71" type="curve"/>
      <point x="440" y="57"/>
      <point x="459" y="49"/>
      <point x="478" y="45" type="curve"/>
      <point x="504" y="78"/>
      <point x="555" y="126"/>
      <point x="596" y="147" type="curve"/>
      <point x="565" y="193" type="line"/>
      <point x="563" y="166"/>
      <point x="575" y="140"/>
      <point x="575" y="111" type="curve" smooth="yes"/>
      <point x="575" y="65"/>
      <point x="556" y="29"/>
      <point x="517" y="2" type="curve"/>
      <point x="590" y="-80" type="line"/>
      <point x="634" y="-49"/>
      <point x="660" y="2"/>
      <point x="660" y="59" type="curve" smooth="yes"/>
      <point x="660" y="149"/>
      <point x="612" y="172"/>
      <point x="612" y="255" type="curve"/>
      <point x="502" y="253" type="line"/>
      <point x="468" y="226"/>
      <point x="438" y="196"/>
      <point x="408" y="155" type="curve"/>
      <point x="454" y="106" type="line"/>
      <point x="447" y="205"/>
      <point x="394" y="276"/>
      <point x="304" y="276" type="curve" smooth="yes"/>
      <point x="229" y="276"/>
      <point x="178" y="210"/>
      <point x="178" y="128" type="curve" smooth="yes"/>
      <point x="178" y="111"/>
      <point x="181" y="96"/>
      <point x="187" y="82" type="curve"/>
      <point x="222" y="24" type="line"/>
      <point x="260" y="50"/>
      <point x="305" y="68"/>
      <point x="327" y="68" type="curve" smooth="yes"/>
      <point x="337" y="68"/>
      <point x="342" y="66"/>
      <point x="342" y="61" type="curve" smooth="yes"/>
      <point x="342" y="50"/>
      <point x="301" y="29"/>
      <point x="243" y="5" type="curve"/>
      <point x="266" y="-34"/>
      <point x="302" y="-71"/>
      <point x="343" y="-95" type="curve"/>
    </contour>
    <contour>
      <point x="551" y="-138"/>
      <point x="584" y="-108"/>
      <point x="598" y="-61" type="curve"/>
      <point x="539" y="-11" type="line"/>
      <point x="528" y="-31"/>
      <point x="512" y="-50"/>
      <point x="495" y="-50" type="curve" smooth="yes"/>
      <point x="484" y="-50"/>
      <point x="475" y="-45"/>
      <point x="475" y="-33" type="curve" smooth="yes"/>
      <point x="475" y="-22"/>
      <point x="483" y="-12"/>
      <point x="496" y="-12" type="curve" smooth="yes"/>
      <point x="516" y="-13"/>
      <point x="530" y="-34"/>
      <point x="537" y="-68" type="curve"/>
      <point x="569" y="-3" type="line"/>
      <point x="562" y="17"/>
      <point x="535" y="38"/>
      <point x="504" y="38" type="curve" smooth="yes"/>
      <point x="461" y="38"/>
      <point x="418" y="3"/>
      <point x="418" y="-51" type="curve" smooth="yes"/>
      <point x="418" y="-106"/>
      <point x="461" y="-138"/>
      <point x="508" y="-138" type="curve" smooth="yes"/>
    </contour>
    <contour>
      <point x="609" y="-303"/>
      <point x="680" y="-238"/>
      <point x="680" y="-157" type="curve" smooth="yes"/>
      <point x="680" y="-107"/>
      <point x="650" y="-55"/>
      <point x="590" y="-24" type="curve"/>
      <point x="547" y="-87" type="line"/>
      <point x="563" y="-94"/>
      <point x="574" y="-110"/>
      <point x="574" y="-125" type="curve" smooth="yes"/>
      <point x="574" y="-155"/>
      <point x="543" y="-169"/>
      <point x="505" y="-169" type="curve" smooth="yes"/>
      <point x="297" y="-169"/>
      <point x="173" y="20"/>
      <point x="99" y="207" type="curve"/>
      <point x="68" y="201"/>
      <point x="28" y="181"/>
      <point x="2" y="157" type="curve"/>
      <point x="70" y="-45"/>
      <point x="191" y="-303"/>
      <point x="488" y="-303" type="curve" smooth="yes"/>
    </contour>
  </outline>
</glyph>
<glyph name="bn_nna.001" format="1">
  <advance width="549"/>
  <outline>
    <contour>
      <point x="389" y="304" type="line"/>
      <point x="389" y="502"/>
      <point x="315" y="657"/>
      <point x="188" y="657" type="curve" smooth="yes"/>
      <point x="86" y="657"/>
      <point x="25" y="558"/>
      <point x="25" y="442" type="curve" smooth="yes"/>
      <point x="25" y="322"/>
      <point x="91" y="227"/>
      <point x="183" y="227" type="curve" smooth="yes"/>
      <point x="255" y="227"/>
      <point x="304" y="285"/>
      <point x="304" y="352" type="curve" smooth="yes"/>
      <point x="304" y="361"/>
      <point x="303" y="366"/>
      <point x="302" y="369" type="curve"/>
      <point x="273" y="404"/>
      <point x="228" y="430"/>
      <point x="184" y="444" type="curve"/>
      <point x="187" y="432"/>
      <point x="188" y="418"/>
      <point x="188" y="408" type="curve" smooth="yes"/>
      <point x="188" y="377"/>
      <point x="179" y="343"/>
      <point x="153" y="343" type="curve" smooth="yes"/>
      <point x="136" y="343"/>
      <point x="123" y="357"/>
      <point x="123" y="386" type="curve" smooth="yes"/>
      <point x="123" y="431"/>
      <point x="154" y="472"/>
      <point x="206" y="472" type="curve" smooth="yes"/>
      <point x="258" y="472"/>
      <point x="338" y="432"/>
      <point x="338" y="343" type="curve" smooth="yes"/>
      <point x="338" y="326"/>
      <point x="335" y="290"/>
      <point x="329" y="241" type="curve"/>
    </contour>
    <contour>
      <point x="467" y="75"/>
      <point x="479" y="218"/>
      <point x="489" y="439" type="curve" smooth="yes"/>
      <point x="490" y="472"/>
      <point x="493" y="485"/>
      <point x="522" y="496" type="curve" smooth="yes"/>
      <point x="530" y="499"/>
      <point x="541" y="502"/>
      <point x="549" y="504" type="curve"/>
      <point x="555" y="523"/>
      <point x="560" y="551"/>
      <point x="560" y="578" type="curve" smooth="yes"/>
      <point x="560" y="602"/>
      <point x="556" y="626"/>
      <point x="549" y="639" type="curve"/>
      <point x="506" y="632"/>
      <point x="453" y="618"/>
      <point x="425" y="607" type="curve" smooth="yes"/>
      <point x="369" y="585"/>
      <point x="363" y="551"/>
      <point x="363" y="512" type="curve" smooth="yes"/>
      <point x="363" y="485"/>
      <point x="366" y="473"/>
      <point x="367" y="458" type="curve"/>
      <point x="340" y="478" type="line"/>
      <point x="341" y="284"/>
      <point x="321" y="122"/>
      <point x="279" y="-10" type="curve"/>
      <point x="317" y="-29"/>
      <point x="391" y="-43"/>
      <point x="442" y="-43" type="curve"/>
    </contour>
  </outline>
</glyph>
<glyph name="bn_nya.001" format="1">
  <advance width="907"/>
  <outline>
    <contour>
      <point x="842" y="310"/>
      <point x="881" y="369"/>
      <point x="881" y="442" type="curve" smooth="yes"/>
      <point x="881" y="527"/>
      <point x="820" y="572"/>
      <point x="748" y="572" type="curve" smooth="yes"/>
      <point x="667" y="572"/>
      <point x="599" y="515"/>
      <point x="569" y="452" type="curve"/>
      <point x="579" y="301" type="line"/>
      <point x="624" y="402"/>
      <point x="691" y="452"/>
      <point x="749" y="452" type="curve" smooth="yes"/>
      <point x="775" y="452"/>
      <point x="791" y="440"/>
      <point x="791" y="419" type="curve" smooth="yes"/>
      <point x="791" y="390"/>
      <point x="769" y="354"/>
      <point x="741" y="320" type="curve"/>
      <point x="795" y="265" type="line"/>
    </contour>
    <contour>
      <point x="821" y="77"/>
      <point x="882" y="123"/>
      <point x="882" y="203" type="curve" smooth="yes"/>
      <point x="882" y="264"/>
      <point x="850" y="314"/>
      <point x="801" y="358" type="curve"/>
      <point x="762" y="308" type="line"/>
      <point x="778" y="298"/>
      <point x="793" y="273"/>
      <point x="793" y="253" type="curve" smooth="yes"/>
      <point x="793" y="225"/>
      <point x="770" y="206"/>
      <point x="733" y="206" type="curve" smooth="yes"/>
      <point x="689" y="206"/>
      <point x="623" y="234"/>
      <point x="579" y="294" type="curve"/>
      <point x="569" y="189" type="line"/>
      <point x="597" y="134"/>
      <point x="663" y="77"/>
      <point x="746" y="77" type="curve" smooth="yes"/>
    </contour>
    <contour>
      <point x="768" y="239"/>
      <point x="800" y="267"/>
      <point x="817" y="312" type="curve"/>
      <point x="768" y="355" type="line"/>
      <point x="756" y="338"/>
      <point x="741" y="324"/>
      <point x="724" y="324" type="curve" smooth="yes"/>
      <point x="711" y="324"/>
      <point x="704" y="333"/>
      <point x="704" y="344" type="curve" smooth="yes"/>
      <point x="704" y="357"/>
      <point x="713" y="367"/>
      <point x="726" y="367" type="curve" smooth="yes"/>
      <point x="744" y="367"/>
      <point x="756" y="349"/>
      <point x="762" y="328" type="curve"/>
      <point x="793" y="380" type="line"/>
      <point x="782" y="399"/>
      <point x="756" y="416"/>
      <point x="729" y="416" type="curve" smooth="yes"/>
      <point x="690" y="416"/>
      <point x="648" y="382"/>
      <point x="648" y="322" type="curve" smooth="yes"/>
      <point x="648" y="273"/>
      <point x="686" y="239"/>
      <point x="730" y="239" type="curve" smooth="yes"/>
    </contour>
    <component base="bn_e"/>
  </outline>
</glyph>
<glyph name="bn_pa.001" format="1">
  <advance width="648"/>
  <outline>
    <contour>
      <point x="485" y="499"/>
      <point x="401" y="657"/>
      <point x="251" y="657" type="curve" smooth="yes"/>
      <point x="162" y="657"/>
      <point x="74" y="601"/>
      <point x="10" y="518" type="curve"/>
      <point x="17" y="476"/>
      <point x="31" y="434"/>
      <point x="54" y="394" type="curve"/>
      <point x="104" y="394"/>
      <point x="152" y="373"/>
      <point x="152" y="327" type="curve" smooth="yes"/>
      <point x="152" y="312"/>
      <point x="147" y="294"/>
      <point x="130" y="281" type="curve"/>
      <point x="209" y="343" type="line"/>
      <point x="223" y="352"/>
      <point x="233" y="374"/>
      <point x="233" y="397" type="curve" smooth="yes"/>
      <point x="233" y="434"/>
      <point x="208" y="468"/>
      <point x="169" y="488" type="curve"/>
      <point x="151" y="425" type="line"/>
      <point x="195" y="489"/>
      <point x="229" y="514"/>
      <point x="276" y="514" type="curve" smooth="yes"/>
      <point x="351" y="514"/>
      <point x="437" y="449"/>
      <point x="437" y="326" type="curve"/>
      <point x="485" y="295" type="line"/>
    </contour>
    <contour>
      <point x="321" y="221"/>
      <point x="413" y="319"/>
      <point x="458" y="410" type="curve"/>
      <point x="397" y="541" type="line"/>
      <point x="311" y="425"/>
      <point x="208" y="340"/>
      <point x="113" y="269" type="curve"/>
      <point x="140" y="217"/>
      <point x="177" y="173"/>
      <point x="226" y="139" type="curve"/>
    </contour>
    <contour>
      <point x="494" y="-37"/>
      <point x="560" y="-32"/>
      <point x="597" y="-24" type="curve"/>
      <point x="583" y="42"/>
      <point x="575" y="156"/>
      <point x="575" y="298" type="curve" smooth="yes"/>
      <point x="575" y="348"/>
      <point x="576" y="386"/>
      <point x="583" y="450" type="curve" smooth="yes"/>
      <point x="585" y="471"/>
      <point x="593" y="487"/>
      <point x="616" y="494" type="curve" smooth="yes"/>
      <point x="638" y="501"/>
      <point x="623" y="496"/>
      <point x="648" y="504" type="curve"/>
      <point x="654" y="523"/>
      <point x="659" y="551"/>
      <point x="659" y="578" type="curve" smooth="yes"/>
      <point x="659" y="602"/>
      <point x="655" y="626"/>
      <point x="648" y="639" type="curve"/>
      <point x="610" y="633"/>
      <point x="551" y="618"/>
      <point x="523" y="607" type="curve" smooth="yes"/>
      <point x="487" y="593"/>
      <point x="469" y="567"/>
      <point x="459" y="523" type="curve" smooth="yes"/>
      <point x="455" y="506"/>
      <point x="452" y="485"/>
      <point x="451" y="477" type="curve"/>
      <point x="448" y="455" type="line"/>
      <point x="434" y="361"/>
      <point x="429" y="241"/>
      <point x="429" y="86" type="curve" smooth="yes"/>
      <point x="429" y="16"/>
      <point x="430" y="-12"/>
      <point x="433" y="-37" type="curve"/>
    </contour>
    <contour>
      <point x="595" y="628" type="line"/>
      <point x="565" y="620"/>
      <point x="543" y="624"/>
      <point x="523" y="620" type="curve" smooth="yes"/>
      <point x="490" y="613"/>
      <point x="472" y="590"/>
      <point x="459" y="523" type="curve"/>
    </contour>
  </outline>
</glyph>
<glyph name="bn_s_ka" format="1">
  <advance width="700"/>
  <outline>
    <contour>
      <point x="79" y="521"/>
      <point x="207" y="536"/>
      <point x="346" y="536" type="curve" smooth="yes"/>
      <point x="484" y="536"/>
      <point x="622" y="521"/>
      <point x="700" y="504" type="curve"/>
      <point x="706" y="521"/>
      <point x="710" y="549"/>
      <point x="710" y="577" type="curve" smooth="yes"/>
      <point x="710" y="601"/>
      <point x="707" y="624"/>
      <point x="700" y="639" type="curve"/>
      <point x="631" y="659"/>
      <point x="490" y="675"/>
      <point x="350" y="675" type="curve" smooth="yes"/>
      <point x="210" y="675"/>
      <point x="77" y="659"/>
      <point x="0" y="639" type="curve"/>
      <point x="-8" y="624"/>
      <point x="-11" y="602"/>
      <point x="-11" y="579" type="curve" smooth="yes"/>
      <point x="-11" y="551"/>
      <point x="-6" y="520"/>
      <point x="0" y="504" type="curve"/>
    </contour>
    <contour>
      <point x="190" y="435"/>
      <point x="153" y="391"/>
      <point x="90" y="391" type="curve" smooth="yes"/>
      <point x="59" y="391"/>
      <point x="23" y="404"/>
      <point x="4" y="420" type="curve"/>
      <point x="50" y="264" type="line"/>
      <point x="69" y="257"/>
      <point x="91" y="253"/>
      <point x="111" y="253" type="curve" smooth="yes"/>
      <point x="222" y="253"/>
      <point x="273" y="368"/>
      <point x="277" y="538" type="curve"/>
      <point x="192" y="549" type="line"/>
    </contour>
    <contour>
      <point x="540" y="240"/>
      <point x="600" y="311"/>
      <point x="600" y="396" type="curve" smooth="yes"/>
      <point x="600" y="494"/>
      <point x="526" y="571"/>
      <point x="427" y="601" type="curve"/>
      <point x="371" y="536" type="line"/>
      <point x="460" y="530"/>
      <point x="485" y="485"/>
      <point x="485" y="451" type="curve" smooth="yes"/>
      <point x="485" y="421"/>
      <point x="468" y="392"/>
      <point x="424" y="392" type="curve" smooth="yes"/>
      <point x="375" y="392"/>
      <point x="318" y="443"/>
      <point x="316" y="549" type="curve"/>
      <point x="247" y="538" type="line"/>
      <point x="251" y="365"/>
      <point x="322" y="240"/>
      <point x="446" y="240" type="curve" smooth="yes"/>
    </contour>
    <contour>
      <point x="442" y="-24" type="line"/>
      <point x="409" y="38"/>
      <point x="338" y="89"/>
      <point x="254" y="121" type="curve"/>
      <point x="238" y="70" type="line"/>
      <point x="306" y="144"/>
      <point x="386" y="200"/>
      <point x="440" y="229" type="curve"/>
      <point x="389" y="369" type="line"/>
      <point x="286" y="317"/>
      <point x="202" y="259"/>
      <point x="129" y="183" type="curve"/>
      <point x="133" y="126"/>
      <point x="153" y="76"/>
      <point x="191" y="21" type="curve"/>
      <point x="273" y="11"/>
      <point x="344" y="-19"/>
      <point x="398" y="-77" type="curve"/>
    </contour>
    <contour>
      <point x="446" y="-77"/>
      <point x="509" y="-72"/>
      <point x="549" y="-60" type="curve"/>
      <point x="528" y="0"/>
      <point x="517" y="86"/>
      <point x="517" y="192" type="curve" smooth="yes"/>
      <point x="517" y="234"/>
      <point x="517" y="273"/>
      <point x="520" y="310" type="curve"/>
      <point x="407" y="317" type="line"/>
      <point x="396" y="222"/>
      <point x="392" y="142"/>
      <point x="392" y="29" type="curve" smooth="yes"/>
      <point x="392" y="-1"/>
      <point x="389" y="-42"/>
      <point x="398" y="-77" type="curve"/>
    </contour>
    <contour>
      <point x="681" y="60"/>
      <point x="720" y="105"/>
      <point x="720" y="171" type="curve" smooth="yes"/>
      <point x="720" y="268"/>
      <point x="611" y="368"/>
      <point x="482" y="378" type="curve"/>
      <point x="487" y="223" type="line"/>
      <point x="564" y="228"/>
      <point x="627" y="238"/>
      <point x="627" y="207" type="curve" smooth="yes"/>
      <point x="627" y="185"/>
      <point x="583" y="150"/>
      <point x="538" y="140" type="curve"/>
      <point x="560" y="87"/>
      <point x="604" y="43"/>
      <point x="640" y="36" type="curve"/>
    </contour>
  </outline>
</glyph>
<glyph name="bn_s_ta_ukaar" format="1">
  <advance width="764"/>
  <outline>
    <contour>
      <point x="657" y="-183"/>
      <point x="730" y="-113"/>
      <point x="730" y="-25" type="curve" smooth="yes"/>
      <point x="730" y="25"/>
      <point x="698" y="78"/>
      <point x="634" y="109" type="curve"/>
      <point x="591" y="46" type="line"/>
      <point x="607" y="39"/>
      <point x="618" y="23"/>
      <point x="618" y="8" type="curve" smooth="yes"/>
      <point x="618" y="-26"/>
      <point x="585" y="-42"/>
      <point x="544" y="-42" type="curve"/>
      <point x="358" y="-42"/>
      <point x="179" y="148"/>
      <point x="93" y="298" type="curve"/>
      <point x="63" y="286"/>
      <point x="30" y="262"/>
      <point x="4" y="240" type="curve"/>
      <point x="82" y="56"/>
      <point x="262" y="-183"/>
      <point x="533" y="-183" type="curve"/>
    </contour>
    <contour>
      <point x="587" y="3"/>
      <point x="621" y="34"/>
      <point x="636" y="83" type="curve"/>
      <point x="574" y="136" type="line"/>
      <point x="563" y="115"/>
      <point x="546" y="95"/>
      <point x="528" y="95" type="curve" smooth="yes"/>
      <point x="516" y="95"/>
      <point x="507" y="100"/>
      <point x="507" y="113" type="curve" smooth="yes"/>
      <point x="507" y="124"/>
      <point x="515" y="135"/>
      <point x="529" y="135" type="curve" smooth="yes"/>
      <point x="550" y="134"/>
      <point x="565" y="112"/>
      <point x="572" y="76" type="curve"/>
      <point x="606" y="144" type="line"/>
      <point x="598" y="165"/>
      <point x="570" y="187"/>
      <point x="537" y="187" type="curve" smooth="yes"/>
      <point x="492" y="187"/>
      <point x="447" y="151"/>
      <point x="447" y="94" type="curve" smooth="yes"/>
      <point x="447" y="36"/>
      <point x="492" y="3"/>
      <point x="542" y="3" type="curve" smooth="yes"/>
    </contour>
    <contour>
      <point x="650" y="240"/>
      <point x="710" y="311"/>
      <point x="710" y="396" type="curve" smooth="yes"/>
      <point x="710" y="494"/>
      <point x="636" y="571"/>
      <point x="537" y="601" type="curve"/>
      <point x="481" y="536" type="line"/>
      <point x="570" y="530"/>
      <point x="595" y="485"/>
      <point x="595" y="451" type="curve" smooth="yes"/>
      <point x="595" y="421"/>
      <point x="578" y="392"/>
      <point x="534" y="392" type="curve" smooth="yes"/>
      <point x="485" y="392"/>
      <point x="428" y="443"/>
      <point x="426" y="549" type="curve"/>
      <point x="357" y="538" type="line"/>
      <point x="361" y="365"/>
      <point x="432" y="240"/>
      <point x="556" y="240" type="curve" smooth="yes"/>
    </contour>
    <contour>
      <point x="79" y="521"/>
      <point x="239" y="536"/>
      <point x="378" y="536" type="curve" smooth="yes"/>
      <point x="516" y="536"/>
      <point x="686" y="521"/>
      <point x="764" y="504" type="curve"/>
      <point x="770" y="521"/>
      <point x="774" y="549"/>
      <point x="774" y="577" type="curve" smooth="yes"/>
      <point x="774" y="601"/>
      <point x="771" y="624"/>
      <point x="764" y="639" type="curve"/>
      <point x="695" y="659"/>
      <point x="522" y="675"/>
      <point x="382" y="675" type="curve" smooth="yes"/>
      <point x="242" y="675"/>
      <point x="77" y="659"/>
      <point x="0" y="639" type="curve"/>
      <point x="-8" y="624"/>
      <point x="-11" y="602"/>
      <point x="-11" y="579" type="curve" smooth="yes"/>
      <point x="-11" y="551"/>
      <point x="-6" y="520"/>
      <point x="0" y="504" type="curve"/>
    </contour>
    <contour>
      <point x="332" y="253"/>
      <point x="383" y="368"/>
      <point x="387" y="538" type="curve"/>
      <point x="302" y="549" type="line"/>
      <point x="300" y="435"/>
      <point x="263" y="391"/>
      <point x="200" y="391" type="curve" smooth="yes"/>
      <point x="169" y="391"/>
      <point x="133" y="404"/>
      <point x="114" y="420" type="curve"/>
      <point x="160" y="264" type="line"/>
      <point x="179" y="257"/>
      <point x="201" y="253"/>
      <point x="221" y="253" type="curve" smooth="yes"/>
    </contour>
    <contour>
      <point x="683" y="87"/>
      <point x="708" y="132"/>
      <point x="708" y="181" type="curve" smooth="yes"/>
      <point x="708" y="261"/>
      <point x="627" y="332"/>
      <point x="517" y="332" type="curve" smooth="yes"/>
      <point x="380" y="332"/>
      <point x="271" y="230"/>
      <point x="274" y="116" type="curve"/>
      <point x="302" y="89"/>
      <point x="372" y="67"/>
      <point x="417" y="67" type="curve"/>
      <point x="414" y="78"/>
      <point x="413" y="88"/>
      <point x="413" y="96" type="curve" smooth="yes"/>
      <point x="413" y="177"/>
      <point x="476" y="233"/>
      <point x="550" y="233" type="curve" smooth="yes"/>
      <point x="579" y="233"/>
      <point x="599" y="223"/>
      <point x="599" y="204" type="curve" smooth="yes"/>
      <point x="599" y="180"/>
      <point x="584" y="159"/>
      <point x="563" y="143" type="curve"/>
      <point x="643" y="57" type="line"/>
    </contour>
  </outline>
</glyph>
<glyph name="bn_ss_tt_ra" format="1">
  <advance width="620"/>
  <outline>
    <contour>
      <point x="472" y="-275"/>
      <point x="515" y="-269"/>
      <point x="551" y="-255" type="curve"/>
      <point x="556" y="-166"/>
      <point x="559" y="-70"/>
      <point x="559" y="13" type="curve"/>
      <point x="437" y="1" type="line"/>
      <point x="435" y="-74"/>
      <point x="428" y="-144"/>
      <point x="420" y="-201" type="curve"/>
      <point x="471" y="-246" type="line"/>
      <point x="418" y="-155"/>
      <point x="380" y="-102"/>
      <point x="311" y="-102" type="curve" smooth="yes"/>
      <point x="275" y="-102"/>
      <point x="202" y="-117"/>
      <point x="175" y="-117" type="curve" smooth="yes"/>
      <point x="146" y="-117"/>
      <point x="126" y="-100"/>
      <point x="126" y="-71" type="curve" smooth="yes"/>
      <point x="126" y="-58"/>
      <point x="130" y="-47"/>
      <point x="134" y="-35" type="curve"/>
      <point x="110" y="-26"/>
      <point x="75" y="-19"/>
      <point x="40" y="-19" type="curve"/>
      <point x="24" y="-49"/>
      <point x="13" y="-84"/>
      <point x="13" y="-119" type="curve" smooth="yes"/>
      <point x="13" y="-202"/>
      <point x="73" y="-251"/>
      <point x="174" y="-251" type="curve" smooth="yes"/>
      <point x="226" y="-251"/>
      <point x="287" y="-238"/>
      <point x="336" y="-238" type="curve" smooth="yes"/>
      <point x="389" y="-238"/>
      <point x="406" y="-253"/>
      <point x="433" y="-277" type="curve"/>
    </contour>
    <contour>
      <point x="491" y="737"/>
      <point x="435" y="855"/>
      <point x="323" y="855" type="curve" smooth="yes"/>
      <point x="285" y="855"/>
      <point x="210" y="841"/>
      <point x="175" y="841" type="curve" smooth="yes"/>
      <point x="129" y="841"/>
      <point x="108" y="864"/>
      <point x="79" y="912" type="curve"/>
      <point x="54" y="897"/>
      <point x="17" y="873"/>
      <point x="-11" y="842" type="curve"/>
      <point x="16" y="780"/>
      <point x="71" y="714"/>
      <point x="160" y="714" type="curve" smooth="yes"/>
      <point x="201" y="714"/>
      <point x="286" y="728"/>
      <point x="321" y="728" type="curve" smooth="yes"/>
      <point x="391" y="728"/>
      <point x="412" y="673"/>
      <point x="418" y="609" type="curve"/>
      <point x="503" y="588" type="line"/>
    </contour>
    <contour>
      <point x="476" y="-82"/>
      <point x="617" y="-12"/>
      <point x="617" y="89" type="curve" smooth="yes"/>
      <point x="617" y="155"/>
      <point x="556" y="195"/>
      <point x="474" y="195" type="curve" smooth="yes"/>
      <point x="461" y="195"/>
      <point x="449" y="194"/>
      <point x="439" y="192" type="curve"/>
      <point x="416" y="168"/>
      <point x="392" y="118"/>
      <point x="392" y="79" type="curve" smooth="yes"/>
      <point x="392" y="71"/>
      <point x="393" y="66"/>
      <point x="394" y="64" type="curve"/>
      <point x="406" y="70"/>
      <point x="416" y="75"/>
      <point x="427" y="75" type="curve" smooth="yes"/>
      <point x="440" y="75"/>
      <point x="448" y="69"/>
      <point x="448" y="59" type="curve" smooth="yes"/>
      <point x="448" y="36"/>
      <point x="388" y="12"/>
      <point x="335" y="14" type="curve" smooth="yes"/>
      <point x="310" y="15"/>
      <point x="294" y="21"/>
      <point x="294" y="39" type="curve" smooth="yes"/>
      <point x="294" y="63"/>
      <point x="322" y="88"/>
      <point x="338" y="107" type="curve" smooth="yes"/>
      <point x="356" y="128"/>
      <point x="431" y="224"/>
      <point x="481" y="289" type="curve" smooth="yes"/>
      <point x="528" y="350"/>
      <point x="552" y="416"/>
      <point x="552" y="478" type="curve" smooth="yes"/>
      <point x="552" y="590"/>
      <point x="475" y="670"/>
      <point x="282" y="670" type="curve"/>
      <point x="179" y="670"/>
      <point x="76" y="656"/>
      <point x="0" y="639" type="curve"/>
      <point x="-8" y="623"/>
      <point x="-11" y="602"/>
      <point x="-11" y="579" type="curve" smooth="yes"/>
      <point x="-11" y="551"/>
      <point x="-6" y="523"/>
      <point x="0" y="504" type="curve"/>
      <point x="63" y="515"/>
      <point x="140" y="526"/>
      <point x="221" y="530" type="curve"/>
      <point x="228" y="597" type="line"/>
      <point x="162" y="540"/>
      <point x="115" y="455"/>
      <point x="115" y="368" type="curve" smooth="yes"/>
      <point x="115" y="270"/>
      <point x="195" y="194"/>
      <point x="297" y="194" type="curve" smooth="yes"/>
      <point x="331" y="194"/>
      <point x="363" y="203"/>
      <point x="392" y="219" type="curve"/>
      <point x="289" y="230" type="line"/>
      <point x="234" y="184"/>
      <point x="220" y="172"/>
      <point x="209" y="163" type="curve" smooth="yes"/>
      <point x="161" y="123"/>
      <point x="139" y="90"/>
      <point x="139" y="46" type="curve" smooth="yes"/>
      <point x="139" y="-42"/>
      <point x="226" y="-82"/>
      <point x="334" y="-82" type="curve" smooth="yes"/>
    </contour>
    <contour>
      <point x="253" y="304"/>
      <point x="238" y="317"/>
      <point x="238" y="341" type="curve" smooth="yes"/>
      <point x="238" y="403"/>
      <point x="326" y="548"/>
      <point x="389" y="548" type="curve" smooth="yes"/>
      <point x="408" y="548"/>
      <point x="423" y="534"/>
      <point x="423" y="509" type="curve" smooth="yes"/>
      <point x="423" y="447"/>
      <point x="334" y="304"/>
      <point x="271" y="304" type="curve" smooth="yes"/>
    </contour>
    <contour>
      <point x="492" y="378" type="line"/>
      <point x="403" y="417"/>
      <point x="292" y="495"/>
      <point x="224" y="564" type="curve"/>
      <point x="174" y="495" type="line"/>
      <point x="244" y="428"/>
      <point x="355" y="350"/>
      <point x="442" y="308" type="curve"/>
    </contour>
    <contour>
      <point x="517" y="479"/>
      <point x="579" y="495"/>
      <point x="620" y="504" type="curve"/>
      <point x="626" y="523"/>
      <point x="631" y="551"/>
      <point x="631" y="578" type="curve" smooth="yes"/>
      <point x="631" y="602"/>
      <point x="627" y="626"/>
      <point x="620" y="639" type="curve"/>
      <point x="571" y="630"/>
      <point x="498" y="611"/>
      <point x="462" y="595" type="curve"/>
      <point x="474" y="459" type="line"/>
    </contour>
  </outline>
</glyph>
<glyph name="bn_tha.001" format="1">
  <advance width="633"/>
  <outline>
    <contour>
      <point x="412" y="59" type="line"/>
      <point x="381" y="150"/>
      <point x="308" y="222"/>
      <point x="215" y="268" type="curve"/>
      <point x="223" y="173" type="line"/>
      <point x="286" y="216" type="line" smooth="yes"/>
      <point x="363" y="269"/>
      <point x="388" y="342"/>
      <point x="388" y="434" type="curve" smooth="yes"/>
      <point x="388" y="557"/>
      <point x="315" y="651"/>
      <point x="194" y="651" type="curve" smooth="yes"/>
      <point x="85" y="651"/>
      <point x="25" y="574"/>
      <point x="25" y="482" type="curve" smooth="yes"/>
      <point x="25" y="456"/>
      <point x="31" y="426"/>
      <point x="42" y="399" type="curve"/>
      <point x="105" y="397"/>
      <point x="152" y="407"/>
      <point x="200" y="434" type="curve"/>
      <point x="187" y="447"/>
      <point x="183" y="458"/>
      <point x="183" y="476" type="curve" smooth="yes"/>
      <point x="183" y="500"/>
      <point x="199" y="530"/>
      <point x="230" y="530" type="curve" smooth="yes"/>
      <point x="252" y="530"/>
      <point x="267" y="515"/>
      <point x="267" y="484" type="curve" smooth="yes"/>
      <point x="267" y="446"/>
      <point x="249" y="398"/>
      <point x="184" y="364" type="curve" smooth="yes"/>
      <point x="88" y="314" type="line"/>
      <point x="95" y="255"/>
      <point x="113" y="206"/>
      <point x="143" y="150" type="curve"/>
      <point x="234" y="133"/>
      <point x="303" y="85"/>
      <point x="357" y="-10" type="curve"/>
    </contour>
    <contour>
      <point x="562" y="75"/>
      <point x="573" y="278"/>
      <point x="573" y="444" type="curve" smooth="yes"/>
      <point x="573" y="474"/>
      <point x="580" y="486"/>
      <point x="602" y="494" type="curve" smooth="yes"/>
      <point x="612" y="498"/>
      <point x="625" y="501"/>
      <point x="633" y="504" type="curve"/>
      <point x="639" y="523"/>
      <point x="644" y="555"/>
      <point x="644" y="579" type="curve" smooth="yes"/>
      <point x="644" y="606"/>
      <point x="640" y="626"/>
      <point x="633" y="639" type="curve"/>
      <point x="582" y="631"/>
      <point x="535" y="620"/>
      <point x="487" y="602" type="curve" smooth="yes"/>
      <point x="452" y="589"/>
      <point x="420" y="557"/>
      <point x="420" y="509" type="curve" smooth="yes"/>
      <point x="420" y="476"/>
      <point x="425" y="449"/>
      <point x="425" y="392" type="curve" smooth="yes"/>
      <point x="425" y="260"/>
      <point x="416" y="159"/>
      <point x="391" y="66" type="curve"/>
      <point x="357" y="-10" type="line"/>
      <point x="393" y="-28"/>
      <point x="465" y="-42"/>
      <point x="519" y="-42" type="curve"/>
    </contour>
  </outline>
</glyph>
